<svg xmlns="http://www.w3.org/2000/svg" xmlns:xlink="http://www.w3.org/1999/xlink" width="2560" zoomAndPan="magnify" viewBox="0 0 1920 1079.999946" height="1440" preserveAspectRatio="xMidYMid meet" version="1.0"><defs><g/><clipPath id="aa45447e30"><path d="M 0 385.625 L 1920 385.625 L 1920 703 L 0 703 Z M 0 385.625 " clip-rule="nonzero"/></clipPath><clipPath id="677bce5326"><path d="M 157 144 L 389 144 L 389 376 L 157 376 Z M 157 144 " clip-rule="nonzero"/></clipPath><clipPath id="6784802373"><path d="M -52.355469 273.359375 L 249.933594 -28.929688 L 555.402344 276.542969 L 253.117188 578.832031 Z M -52.355469 273.359375 " clip-rule="nonzero"/></clipPath><clipPath id="1ee9a7e33f"><path d="M -52.355469 273.359375 L 249.933594 -28.929688 L 555.402344 276.542969 L 253.117188 578.832031 Z M -52.355469 273.359375 " clip-rule="nonzero"/></clipPath><clipPath id="d2fd93ebae"><path d="M 161 158 L 378 158 L 378 370 L 161 370 Z M 161 158 " clip-rule="nonzero"/></clipPath><clipPath id="bda2e6028a"><path d="M -52.355469 273.359375 L 249.933594 -28.929688 L 555.402344 276.542969 L 253.117188 578.832031 Z M -52.355469 273.359375 " clip-rule="nonzero"/></clipPath><clipPath id="0be9eaf1e2"><path d="M -52.355469 273.359375 L 249.933594 -28.929688 L 555.402344 276.542969 L 253.117188 578.832031 Z M -52.355469 273.359375 " clip-rule="nonzero"/></clipPath><clipPath id="ae79b3f801"><path d="M 232 112 L 283 112 L 283 162 L 232 162 Z M 232 112 " clip-rule="nonzero"/></clipPath><clipPath id="616f11291f"><path d="M -52.355469 273.359375 L 249.933594 -28.929688 L 555.402344 276.542969 L 253.117188 578.832031 Z M -52.355469 273.359375 " clip-rule="nonzero"/></clipPath><clipPath id="e2fa81733c"><path d="M -52.355469 273.359375 L 249.933594 -28.929688 L 555.402344 276.542969 L 253.117188 578.832031 Z M -52.355469 273.359375 " clip-rule="nonzero"/></clipPath><clipPath id="b60fd4fc10"><path d="M 232 65 L 286 65 L 286 119 L 232 119 Z M 232 65 " clip-rule="nonzero"/></clipPath><clipPath id="20c17b2f0a"><path d="M -52.355469 273.359375 L 249.933594 -28.929688 L 555.402344 276.542969 L 253.117188 578.832031 Z M -52.355469 273.359375 " clip-rule="nonzero"/></clipPath><clipPath id="738da32b7a"><path d="M -52.355469 273.359375 L 249.933594 -28.929688 L 555.402344 276.542969 L 253.117188 578.832031 Z M -52.355469 273.359375 " clip-rule="nonzero"/></clipPath><clipPath id="2fb88c4e2a"><path d="M 278 61 L 292 61 L 292 74 L 278 74 Z M 278 61 " clip-rule="nonzero"/></clipPath><clipPath id="7a6959316e"><path d="M -52.355469 273.359375 L 249.933594 -28.929688 L 555.402344 276.542969 L 253.117188 578.832031 Z M -52.355469 273.359375 " clip-rule="nonzero"/></clipPath><clipPath id="18f4df0c35"><path d="M -52.355469 273.359375 L 249.933594 -28.929688 L 555.402344 276.542969 L 253.117188 578.832031 Z M -52.355469 273.359375 " clip-rule="nonzero"/></clipPath><clipPath id="a88ebf0249"><path d="M 180 101 L 262 101 L 262 183 L 180 183 Z M 180 101 " clip-rule="nonzero"/></clipPath><clipPath id="35d5852544"><path d="M -52.355469 273.359375 L 249.933594 -28.929688 L 555.402344 276.542969 L 253.117188 578.832031 Z M -52.355469 273.359375 " clip-rule="nonzero"/></clipPath><clipPath id="4d270f009a"><path d="M -52.355469 273.359375 L 249.933594 -28.929688 L 555.402344 276.542969 L 253.117188 578.832031 Z M -52.355469 273.359375 " clip-rule="nonzero"/></clipPath><clipPath id="27502d7bfa"><path d="M 180 66 L 221 66 L 221 107 L 180 107 Z M 180 66 " clip-rule="nonzero"/></clipPath><clipPath id="9da76d3f91"><path d="M -52.355469 273.359375 L 249.933594 -28.929688 L 555.402344 276.542969 L 253.117188 578.832031 Z M -52.355469 273.359375 " clip-rule="nonzero"/></clipPath><clipPath id="907053f3d7"><path d="M -52.355469 273.359375 L 249.933594 -28.929688 L 555.402344 276.542969 L 253.117188 578.832031 Z M -52.355469 273.359375 " clip-rule="nonzero"/></clipPath><clipPath id="73fc8426d6"><path d="M 192 43 L 221 43 L 221 72 L 192 72 Z M 192 43 " clip-rule="nonzero"/></clipPath><clipPath id="d977088af3"><path d="M -52.355469 273.359375 L 249.933594 -28.929688 L 555.402344 276.542969 L 253.117188 578.832031 Z M -52.355469 273.359375 " clip-rule="nonzero"/></clipPath><clipPath id="39380576b4"><path d="M -52.355469 273.359375 L 249.933594 -28.929688 L 555.402344 276.542969 L 253.117188 578.832031 Z M -52.355469 273.359375 " clip-rule="nonzero"/></clipPath><clipPath id="35991beb5a"><path d="M 187 38 L 200 38 L 200 52 L 187 52 Z M 187 38 " clip-rule="nonzero"/></clipPath><clipPath id="543dd2fe5e"><path d="M -52.355469 273.359375 L 249.933594 -28.929688 L 555.402344 276.542969 L 253.117188 578.832031 Z M -52.355469 273.359375 " clip-rule="nonzero"/></clipPath><clipPath id="643d2e2d54"><path d="M -52.355469 273.359375 L 249.933594 -28.929688 L 555.402344 276.542969 L 253.117188 578.832031 Z M -52.355469 273.359375 " clip-rule="nonzero"/></clipPath><clipPath id="a5bc454d25"><path d="M 133 94 L 242 94 L 242 203 L 133 203 Z M 133 94 " clip-rule="nonzero"/></clipPath><clipPath id="23e44e56b9"><path d="M -52.355469 273.359375 L 249.933594 -28.929688 L 555.402344 276.542969 L 253.117188 578.832031 Z M -52.355469 273.359375 " clip-rule="nonzero"/></clipPath><clipPath id="1a41032daa"><path d="M -52.355469 273.359375 L 249.933594 -28.929688 L 555.402344 276.542969 L 253.117188 578.832031 Z M -52.355469 273.359375 " clip-rule="nonzero"/></clipPath><clipPath id="adfc5ffd96"><path d="M 163 159 L 225 159 L 225 220 L 163 220 Z M 163 159 " clip-rule="nonzero"/></clipPath><clipPath id="4b018e0b52"><path d="M -52.355469 273.359375 L 249.933594 -28.929688 L 555.402344 276.542969 L 253.117188 578.832031 Z M -52.355469 273.359375 " clip-rule="nonzero"/></clipPath><clipPath id="f64bdce182"><path d="M -52.355469 273.359375 L 249.933594 -28.929688 L 555.402344 276.542969 L 253.117188 578.832031 Z M -52.355469 273.359375 " clip-rule="nonzero"/></clipPath><clipPath id="b933ff0287"><path d="M 166 202 L 204 202 L 204 240 L 166 240 Z M 166 202 " clip-rule="nonzero"/></clipPath><clipPath id="35df3ebab9"><path d="M -52.355469 273.359375 L 249.933594 -28.929688 L 555.402344 276.542969 L 253.117188 578.832031 Z M -52.355469 273.359375 " clip-rule="nonzero"/></clipPath><clipPath id="358bdb6fb8"><path d="M -52.355469 273.359375 L 249.933594 -28.929688 L 555.402344 276.542969 L 253.117188 578.832031 Z M -52.355469 273.359375 " clip-rule="nonzero"/></clipPath><clipPath id="5b97657adc"><path d="M 143 205 L 170 205 L 170 231 L 143 231 Z M 143 205 " clip-rule="nonzero"/></clipPath><clipPath id="8bd57859e1"><path d="M -52.355469 273.359375 L 249.933594 -28.929688 L 555.402344 276.542969 L 253.117188 578.832031 Z M -52.355469 273.359375 " clip-rule="nonzero"/></clipPath><clipPath id="0dd8e453be"><path d="M -52.355469 273.359375 L 249.933594 -28.929688 L 555.402344 276.542969 L 253.117188 578.832031 Z M -52.355469 273.359375 " clip-rule="nonzero"/></clipPath><clipPath id="67bedb9cdf"><path d="M 99 187 L 146 187 L 146 235 L 99 235 Z M 99 187 " clip-rule="nonzero"/></clipPath><clipPath id="fc1042ac00"><path d="M -52.355469 273.359375 L 249.933594 -28.929688 L 555.402344 276.542969 L 253.117188 578.832031 Z M -52.355469 273.359375 " clip-rule="nonzero"/></clipPath><clipPath id="7f10ac1b1d"><path d="M -52.355469 273.359375 L 249.933594 -28.929688 L 555.402344 276.542969 L 253.117188 578.832031 Z M -52.355469 273.359375 " clip-rule="nonzero"/></clipPath><clipPath id="d546403889"><path d="M 163 234 L 188 234 L 188 258 L 163 258 Z M 163 234 " clip-rule="nonzero"/></clipPath><clipPath id="799945a395"><path d="M -52.355469 273.359375 L 249.933594 -28.929688 L 555.402344 276.542969 L 253.117188 578.832031 Z M -52.355469 273.359375 " clip-rule="nonzero"/></clipPath><clipPath id="b29254232a"><path d="M -52.355469 273.359375 L 249.933594 -28.929688 L 555.402344 276.542969 L 253.117188 578.832031 Z M -52.355469 273.359375 " clip-rule="nonzero"/></clipPath><clipPath id="14368b10c3"><path d="M 134 237 L 167 237 L 167 269 L 134 269 Z M 134 237 " clip-rule="nonzero"/></clipPath><clipPath id="23f07ad417"><path d="M -52.355469 273.359375 L 249.933594 -28.929688 L 555.402344 276.542969 L 253.117188 578.832031 Z M -52.355469 273.359375 " clip-rule="nonzero"/></clipPath><clipPath id="2dfcee10e5"><path d="M -52.355469 273.359375 L 249.933594 -28.929688 L 555.402344 276.542969 L 253.117188 578.832031 Z M -52.355469 273.359375 " clip-rule="nonzero"/></clipPath><clipPath id="f1b317ebc4"><path d="M 157 263 L 170 263 L 170 276 L 157 276 Z M 157 263 " clip-rule="nonzero"/></clipPath><clipPath id="7d07bbc29f"><path d="M -52.355469 273.359375 L 249.933594 -28.929688 L 555.402344 276.542969 L 253.117188 578.832031 Z M -52.355469 273.359375 " clip-rule="nonzero"/></clipPath><clipPath id="16be692499"><path d="M -52.355469 273.359375 L 249.933594 -28.929688 L 555.402344 276.542969 L 253.117188 578.832031 Z M -52.355469 273.359375 " clip-rule="nonzero"/></clipPath><clipPath id="08b8b122fe"><path d="M 105 266 L 161 266 L 161 322 L 105 322 Z M 105 266 " clip-rule="nonzero"/></clipPath><clipPath id="1b15bf163d"><path d="M -52.355469 273.359375 L 249.933594 -28.929688 L 555.402344 276.542969 L 253.117188 578.832031 Z M -52.355469 273.359375 " clip-rule="nonzero"/></clipPath><clipPath id="6721715785"><path d="M -52.355469 273.359375 L 249.933594 -28.929688 L 555.402344 276.542969 L 253.117188 578.832031 Z M -52.355469 273.359375 " clip-rule="nonzero"/></clipPath><clipPath id="0c7ebb7f1b"><path d="M 102 315 L 115 315 L 115 328 L 102 328 Z M 102 315 " clip-rule="nonzero"/></clipPath><clipPath id="5ab09956d5"><path d="M -52.355469 273.359375 L 249.933594 -28.929688 L 555.402344 276.542969 L 253.117188 578.832031 Z M -52.355469 273.359375 " clip-rule="nonzero"/></clipPath><clipPath id="415df5dc35"><path d="M -52.355469 273.359375 L 249.933594 -28.929688 L 555.402344 276.542969 L 253.117188 578.832031 Z M -52.355469 273.359375 " clip-rule="nonzero"/></clipPath><clipPath id="c39d424922"><path d="M 129 264 L 142 264 L 142 277 L 129 277 Z M 129 264 " clip-rule="nonzero"/></clipPath><clipPath id="f39ac108df"><path d="M -52.355469 273.359375 L 249.933594 -28.929688 L 555.402344 276.542969 L 253.117188 578.832031 Z M -52.355469 273.359375 " clip-rule="nonzero"/></clipPath><clipPath id="2f658f3496"><path d="M -52.355469 273.359375 L 249.933594 -28.929688 L 555.402344 276.542969 L 253.117188 578.832031 Z M -52.355469 273.359375 " clip-rule="nonzero"/></clipPath><clipPath id="e2ae605320"><path d="M 94 185 L 108 185 L 108 198 L 94 198 Z M 94 185 " clip-rule="nonzero"/></clipPath><clipPath id="4da7bce2df"><path d="M -52.355469 273.359375 L 249.933594 -28.929688 L 555.402344 276.542969 L 253.117188 578.832031 Z M -52.355469 273.359375 " clip-rule="nonzero"/></clipPath><clipPath id="710da058bf"><path d="M -52.355469 273.359375 L 249.933594 -28.929688 L 555.402344 276.542969 L 253.117188 578.832031 Z M -52.355469 273.359375 " clip-rule="nonzero"/></clipPath><clipPath id="4535049413"><path d="M 157 156 L 171 156 L 171 169 L 157 169 Z M 157 156 " clip-rule="nonzero"/></clipPath><clipPath id="9804dcb9f1"><path d="M -52.355469 273.359375 L 249.933594 -28.929688 L 555.402344 276.542969 L 253.117188 578.832031 Z M -52.355469 273.359375 " clip-rule="nonzero"/></clipPath><clipPath id="508483f9b5"><path d="M -52.355469 273.359375 L 249.933594 -28.929688 L 555.402344 276.542969 L 253.117188 578.832031 Z M -52.355469 273.359375 " clip-rule="nonzero"/></clipPath><clipPath id="fcd1b69703"><path d="M 127 90 L 140 90 L 140 103 L 127 103 Z M 127 90 " clip-rule="nonzero"/></clipPath><clipPath id="5e4a8ca666"><path d="M -52.355469 273.359375 L 249.933594 -28.929688 L 555.402344 276.542969 L 253.117188 578.832031 Z M -52.355469 273.359375 " clip-rule="nonzero"/></clipPath><clipPath id="fb13bac8b0"><path d="M -52.355469 273.359375 L 249.933594 -28.929688 L 555.402344 276.542969 L 253.117188 578.832031 Z M -52.355469 273.359375 " clip-rule="nonzero"/></clipPath><clipPath id="da48763940"><path d="M 345 121 L 393 121 L 393 169 L 345 169 Z M 345 121 " clip-rule="nonzero"/></clipPath><clipPath id="ec2339a133"><path d="M -52.355469 273.359375 L 249.933594 -28.929688 L 555.402344 276.542969 L 253.117188 578.832031 Z M -52.355469 273.359375 " clip-rule="nonzero"/></clipPath><clipPath id="9a7cb88b4d"><path d="M -52.355469 273.359375 L 249.933594 -28.929688 L 555.402344 276.542969 L 253.117188 578.832031 Z M -52.355469 273.359375 " clip-rule="nonzero"/></clipPath><clipPath id="b82f826d17"><path d="M 365 150 L 404 150 L 404 189 L 365 189 Z M 365 150 " clip-rule="nonzero"/></clipPath><clipPath id="5cd4b08791"><path d="M -52.355469 273.359375 L 249.933594 -28.929688 L 555.402344 276.542969 L 253.117188 578.832031 Z M -52.355469 273.359375 " clip-rule="nonzero"/></clipPath><clipPath id="7c660f5eb5"><path d="M -52.355469 273.359375 L 249.933594 -28.929688 L 555.402344 276.542969 L 253.117188 578.832031 Z M -52.355469 273.359375 " clip-rule="nonzero"/></clipPath><clipPath id="c439948a7f"><path d="M 401 153 L 445 153 L 445 197 L 401 197 Z M 401 153 " clip-rule="nonzero"/></clipPath><clipPath id="8de16473fb"><path d="M -52.355469 273.359375 L 249.933594 -28.929688 L 555.402344 276.542969 L 253.117188 578.832031 Z M -52.355469 273.359375 " clip-rule="nonzero"/></clipPath><clipPath id="819058c25b"><path d="M -52.355469 273.359375 L 249.933594 -28.929688 L 555.402344 276.542969 L 253.117188 578.832031 Z M -52.355469 273.359375 " clip-rule="nonzero"/></clipPath><clipPath id="a7b4cca0ae"><path d="M 385 117 L 398 117 L 398 130 L 385 130 Z M 385 117 " clip-rule="nonzero"/></clipPath><clipPath id="9561398414"><path d="M -52.355469 273.359375 L 249.933594 -28.929688 L 555.402344 276.542969 L 253.117188 578.832031 Z M -52.355469 273.359375 " clip-rule="nonzero"/></clipPath><clipPath id="f93f53c0bb"><path d="M -52.355469 273.359375 L 249.933594 -28.929688 L 555.402344 276.542969 L 253.117188 578.832031 Z M -52.355469 273.359375 " clip-rule="nonzero"/></clipPath><clipPath id="32fe74b689"><path d="M 437 189 L 451 189 L 451 202 L 437 202 Z M 437 189 " clip-rule="nonzero"/></clipPath><clipPath id="df175853b8"><path d="M -52.355469 273.359375 L 249.933594 -28.929688 L 555.402344 276.542969 L 253.117188 578.832031 Z M -52.355469 273.359375 " clip-rule="nonzero"/></clipPath><clipPath id="db1a166e75"><path d="M -52.355469 273.359375 L 249.933594 -28.929688 L 555.402344 276.542969 L 253.117188 578.832031 Z M -52.355469 273.359375 " clip-rule="nonzero"/></clipPath><clipPath id="9230f640f0"><path d="M 372 251 L 424 251 L 424 304 L 372 304 Z M 372 251 " clip-rule="nonzero"/></clipPath><clipPath id="a8686580b9"><path d="M -52.355469 273.359375 L 249.933594 -28.929688 L 555.402344 276.542969 L 253.117188 578.832031 Z M -52.355469 273.359375 " clip-rule="nonzero"/></clipPath><clipPath id="833b7cc41d"><path d="M -52.355469 273.359375 L 249.933594 -28.929688 L 555.402344 276.542969 L 253.117188 578.832031 Z M -52.355469 273.359375 " clip-rule="nonzero"/></clipPath><clipPath id="d2652f186c"><path d="M 421 254 L 474 254 L 474 306 L 421 306 Z M 421 254 " clip-rule="nonzero"/></clipPath><clipPath id="b5685c4cff"><path d="M -52.355469 273.359375 L 249.933594 -28.929688 L 555.402344 276.542969 L 253.117188 578.832031 Z M -52.355469 273.359375 " clip-rule="nonzero"/></clipPath><clipPath id="b1f98c8838"><path d="M -52.355469 273.359375 L 249.933594 -28.929688 L 555.402344 276.542969 L 253.117188 578.832031 Z M -52.355469 273.359375 " clip-rule="nonzero"/></clipPath><clipPath id="cab31cc152"><path d="M 354 268 L 428 268 L 428 342 L 354 342 Z M 354 268 " clip-rule="nonzero"/></clipPath><clipPath id="e964f96a70"><path d="M -52.355469 273.359375 L 249.933594 -28.929688 L 555.402344 276.542969 L 253.117188 578.832031 Z M -52.355469 273.359375 " clip-rule="nonzero"/></clipPath><clipPath id="85a12fa696"><path d="M -52.355469 273.359375 L 249.933594 -28.929688 L 555.402344 276.542969 L 253.117188 578.832031 Z M -52.355469 273.359375 " clip-rule="nonzero"/></clipPath><clipPath id="0660a32ba3"><path d="M 423 294 L 474 294 L 474 345 L 423 345 Z M 423 294 " clip-rule="nonzero"/></clipPath><clipPath id="97897fdab1"><path d="M -52.355469 273.359375 L 249.933594 -28.929688 L 555.402344 276.542969 L 253.117188 578.832031 Z M -52.355469 273.359375 " clip-rule="nonzero"/></clipPath><clipPath id="33c67b730c"><path d="M -52.355469 273.359375 L 249.933594 -28.929688 L 555.402344 276.542969 L 253.117188 578.832031 Z M -52.355469 273.359375 " clip-rule="nonzero"/></clipPath><clipPath id="05280d786d"><path d="M 334 289 L 407 289 L 407 362 L 334 362 Z M 334 289 " clip-rule="nonzero"/></clipPath><clipPath id="e16ec2f106"><path d="M -52.355469 273.359375 L 249.933594 -28.929688 L 555.402344 276.542969 L 253.117188 578.832031 Z M -52.355469 273.359375 " clip-rule="nonzero"/></clipPath><clipPath id="a4161995fb"><path d="M -52.355469 273.359375 L 249.933594 -28.929688 L 555.402344 276.542969 L 253.117188 578.832031 Z M -52.355469 273.359375 " clip-rule="nonzero"/></clipPath><clipPath id="a2bd83e76f"><path d="M 313 303 L 416 303 L 416 443 L 313 443 Z M 313 303 " clip-rule="nonzero"/></clipPath><clipPath id="9ec54da4b3"><path d="M -52.355469 273.359375 L 249.933594 -28.929688 L 555.402344 276.542969 L 253.117188 578.832031 Z M -52.355469 273.359375 " clip-rule="nonzero"/></clipPath><clipPath id="4577d639de"><path d="M -52.355469 273.359375 L 249.933594 -28.929688 L 555.402344 276.542969 L 253.117188 578.832031 Z M -52.355469 273.359375 " clip-rule="nonzero"/></clipPath><clipPath id="e0c5da7a31"><path d="M 293 323 L 375 323 L 375 406 L 293 406 Z M 293 323 " clip-rule="nonzero"/></clipPath><clipPath id="9d3c6d6424"><path d="M -52.355469 273.359375 L 249.933594 -28.929688 L 555.402344 276.542969 L 253.117188 578.832031 Z M -52.355469 273.359375 " clip-rule="nonzero"/></clipPath><clipPath id="07a4217e10"><path d="M -52.355469 273.359375 L 249.933594 -28.929688 L 555.402344 276.542969 L 253.117188 578.832031 Z M -52.355469 273.359375 " clip-rule="nonzero"/></clipPath><clipPath id="7b3e63825d"><path d="M 270 341 L 367 341 L 367 469 L 270 469 Z M 270 341 " clip-rule="nonzero"/></clipPath><clipPath id="743292e8dd"><path d="M -52.355469 273.359375 L 249.933594 -28.929688 L 555.402344 276.542969 L 253.117188 578.832031 Z M -52.355469 273.359375 " clip-rule="nonzero"/></clipPath><clipPath id="b4c6443798"><path d="M -52.355469 273.359375 L 249.933594 -28.929688 L 555.402344 276.542969 L 253.117188 578.832031 Z M -52.355469 273.359375 " clip-rule="nonzero"/></clipPath><clipPath id="128b2b1340"><path d="M 253 359 L 300 359 L 300 443 L 253 443 Z M 253 359 " clip-rule="nonzero"/></clipPath><clipPath id="e632c30bb1"><path d="M -52.355469 273.359375 L 249.933594 -28.929688 L 555.402344 276.542969 L 253.117188 578.832031 Z M -52.355469 273.359375 " clip-rule="nonzero"/></clipPath><clipPath id="b4692e60d6"><path d="M -52.355469 273.359375 L 249.933594 -28.929688 L 555.402344 276.542969 L 253.117188 578.832031 Z M -52.355469 273.359375 " clip-rule="nonzero"/></clipPath><clipPath id="91bee2f29d"><path d="M 465 250 L 479 250 L 479 263 L 465 263 Z M 465 250 " clip-rule="nonzero"/></clipPath><clipPath id="4f7d07a844"><path d="M -52.355469 273.359375 L 249.933594 -28.929688 L 555.402344 276.542969 L 253.117188 578.832031 Z M -52.355469 273.359375 " clip-rule="nonzero"/></clipPath><clipPath id="95ef8bd4a4"><path d="M -52.355469 273.359375 L 249.933594 -28.929688 L 555.402344 276.542969 L 253.117188 578.832031 Z M -52.355469 273.359375 " clip-rule="nonzero"/></clipPath><clipPath id="8c2946a59f"><path d="M 465 291 L 478 291 L 478 305 L 465 305 Z M 465 291 " clip-rule="nonzero"/></clipPath><clipPath id="7cbf9265c1"><path d="M -52.355469 273.359375 L 249.933594 -28.929688 L 555.402344 276.542969 L 253.117188 578.832031 Z M -52.355469 273.359375 " clip-rule="nonzero"/></clipPath><clipPath id="718b19523f"><path d="M -52.355469 273.359375 L 249.933594 -28.929688 L 555.402344 276.542969 L 253.117188 578.832031 Z M -52.355469 273.359375 " clip-rule="nonzero"/></clipPath><clipPath id="ba11a4a728"><path d="M 398 355 L 411 355 L 411 369 L 398 369 Z M 398 355 " clip-rule="nonzero"/></clipPath><clipPath id="34f6075196"><path d="M -52.355469 273.359375 L 249.933594 -28.929688 L 555.402344 276.542969 L 253.117188 578.832031 Z M -52.355469 273.359375 " clip-rule="nonzero"/></clipPath><clipPath id="7fb8ce7ffd"><path d="M -52.355469 273.359375 L 249.933594 -28.929688 L 555.402344 276.542969 L 253.117188 578.832031 Z M -52.355469 273.359375 " clip-rule="nonzero"/></clipPath><clipPath id="4803f3317b"><path d="M 367 399 L 380 399 L 380 413 L 367 413 Z M 367 399 " clip-rule="nonzero"/></clipPath><clipPath id="3811121c03"><path d="M -52.355469 273.359375 L 249.933594 -28.929688 L 555.402344 276.542969 L 253.117188 578.832031 Z M -52.355469 273.359375 " clip-rule="nonzero"/></clipPath><clipPath id="049157a78e"><path d="M -52.355469 273.359375 L 249.933594 -28.929688 L 555.402344 276.542969 L 253.117188 578.832031 Z M -52.355469 273.359375 " clip-rule="nonzero"/></clipPath><clipPath id="f3c37bcb71"><path d="M 373 437 L 386 437 L 386 450 L 373 450 Z M 373 437 " clip-rule="nonzero"/></clipPath><clipPath id="afa1aa1477"><path d="M -52.355469 273.359375 L 249.933594 -28.929688 L 555.402344 276.542969 L 253.117188 578.832031 Z M -52.355469 273.359375 " clip-rule="nonzero"/></clipPath><clipPath id="49886769ab"><path d="M -52.355469 273.359375 L 249.933594 -28.929688 L 555.402344 276.542969 L 253.117188 578.832031 Z M -52.355469 273.359375 " clip-rule="nonzero"/></clipPath><clipPath id="f5098b3988"><path d="M 328 462 L 341 462 L 341 475 L 328 475 Z M 328 462 " clip-rule="nonzero"/></clipPath><clipPath id="75b4e03f83"><path d="M -52.355469 273.359375 L 249.933594 -28.929688 L 555.402344 276.542969 L 253.117188 578.832031 Z M -52.355469 273.359375 " clip-rule="nonzero"/></clipPath><clipPath id="1d54c030da"><path d="M -52.355469 273.359375 L 249.933594 -28.929688 L 555.402344 276.542969 L 253.117188 578.832031 Z M -52.355469 273.359375 " clip-rule="nonzero"/></clipPath><clipPath id="f252f302c7"><path d="M 256 437 L 269 437 L 269 450 L 256 450 Z M 256 437 " clip-rule="nonzero"/></clipPath><clipPath id="bc302f6adf"><path d="M -52.355469 273.359375 L 249.933594 -28.929688 L 555.402344 276.542969 L 253.117188 578.832031 Z M -52.355469 273.359375 " clip-rule="nonzero"/></clipPath><clipPath id="1781fd8f9f"><path d="M -52.355469 273.359375 L 249.933594 -28.929688 L 555.402344 276.542969 L 253.117188 578.832031 Z M -52.355469 273.359375 " clip-rule="nonzero"/></clipPath><clipPath id="c50cb0a429"><path d="M 113 321 L 175 321 L 175 383 L 113 383 Z M 113 321 " clip-rule="nonzero"/></clipPath><clipPath id="396af80f72"><path d="M -52.355469 273.359375 L 249.933594 -28.929688 L 555.402344 276.542969 L 253.117188 578.832031 Z M -52.355469 273.359375 " clip-rule="nonzero"/></clipPath><clipPath id="7f449e20a3"><path d="M -52.355469 273.359375 L 249.933594 -28.929688 L 555.402344 276.542969 L 253.117188 578.832031 Z M -52.355469 273.359375 " clip-rule="nonzero"/></clipPath><clipPath id="6f248729f8"><path d="M 111 338 L 199 338 L 199 426 L 111 426 Z M 111 338 " clip-rule="nonzero"/></clipPath><clipPath id="4b8f6c02ea"><path d="M -52.355469 273.359375 L 249.933594 -28.929688 L 555.402344 276.542969 L 253.117188 578.832031 Z M -52.355469 273.359375 " clip-rule="nonzero"/></clipPath><clipPath id="9ab3acf45b"><path d="M -52.355469 273.359375 L 249.933594 -28.929688 L 555.402344 276.542969 L 253.117188 578.832031 Z M -52.355469 273.359375 " clip-rule="nonzero"/></clipPath><clipPath id="48356a9196"><path d="M 58 372 L 115 372 L 115 429 L 58 429 Z M 58 372 " clip-rule="nonzero"/></clipPath><clipPath id="5b57e6beba"><path d="M -52.355469 273.359375 L 249.933594 -28.929688 L 555.402344 276.542969 L 253.117188 578.832031 Z M -52.355469 273.359375 " clip-rule="nonzero"/></clipPath><clipPath id="af81b26aa8"><path d="M -52.355469 273.359375 L 249.933594 -28.929688 L 555.402344 276.542969 L 253.117188 578.832031 Z M -52.355469 273.359375 " clip-rule="nonzero"/></clipPath><clipPath id="c89f91e058"><path d="M 156 355 L 216 355 L 216 455 L 156 455 Z M 156 355 " clip-rule="nonzero"/></clipPath><clipPath id="55b93e530d"><path d="M -52.355469 273.359375 L 249.933594 -28.929688 L 555.402344 276.542969 L 253.117188 578.832031 Z M -52.355469 273.359375 " clip-rule="nonzero"/></clipPath><clipPath id="cb196dd5d7"><path d="M -52.355469 273.359375 L 249.933594 -28.929688 L 555.402344 276.542969 L 253.117188 578.832031 Z M -52.355469 273.359375 " clip-rule="nonzero"/></clipPath><clipPath id="93e0855262"><path d="M 54 369 L 68 369 L 68 382 L 54 382 Z M 54 369 " clip-rule="nonzero"/></clipPath><clipPath id="07d5b9aa8d"><path d="M -52.355469 273.359375 L 249.933594 -28.929688 L 555.402344 276.542969 L 253.117188 578.832031 Z M -52.355469 273.359375 " clip-rule="nonzero"/></clipPath><clipPath id="daaf09478e"><path d="M -52.355469 273.359375 L 249.933594 -28.929688 L 555.402344 276.542969 L 253.117188 578.832031 Z M -52.355469 273.359375 " clip-rule="nonzero"/></clipPath><clipPath id="3a4942e1f7"><path d="M 109 374 L 123 374 L 123 387 L 109 387 Z M 109 374 " clip-rule="nonzero"/></clipPath><clipPath id="ffbf37d423"><path d="M -52.355469 273.359375 L 249.933594 -28.929688 L 555.402344 276.542969 L 253.117188 578.832031 Z M -52.355469 273.359375 " clip-rule="nonzero"/></clipPath><clipPath id="2dfecc8683"><path d="M -52.355469 273.359375 L 249.933594 -28.929688 L 555.402344 276.542969 L 253.117188 578.832031 Z M -52.355469 273.359375 " clip-rule="nonzero"/></clipPath><clipPath id="f926dd89dd"><path d="M 190 449 L 203 449 L 203 462 L 190 462 Z M 190 449 " clip-rule="nonzero"/></clipPath><clipPath id="b51eb78307"><path d="M -52.355469 273.359375 L 249.933594 -28.929688 L 555.402344 276.542969 L 253.117188 578.832031 Z M -52.355469 273.359375 " clip-rule="nonzero"/></clipPath><clipPath id="76076426e7"><path d="M -52.355469 273.359375 L 249.933594 -28.929688 L 555.402344 276.542969 L 253.117188 578.832031 Z M -52.355469 273.359375 " clip-rule="nonzero"/></clipPath><clipPath id="cb38072ae5"><path d="M 1741.28125 473.484375 L 1836.53125 473.484375 L 1836.53125 606.234375 L 1741.28125 606.234375 Z M 1741.28125 473.484375 " clip-rule="nonzero"/></clipPath><clipPath id="a89997c5fa"><path d="M 576 766 L 1344 766 L 1344 1033.746094 L 576 1033.746094 Z M 576 766 " clip-rule="nonzero"/></clipPath></defs><rect x="-192" width="2304" fill="#ffffff" y="-107.999995" height="1295.999935" fill-opacity="1"/><rect x="-192" width="2304" fill="#ffffff" y="-107.999995" height="1295.999935" fill-opacity="1"/><rect x="-192" width="2304" fill="#000000" y="-107.999995" height="1295.999935" fill-opacity="1"/><g clip-path="url(#aa45447e30)"><path fill="#550055" d="M 0 385.625 L 1920.722656 385.625 L 1920.722656 702.9375 L 0 702.9375 Z M 0 385.625 " fill-opacity="1" fill-rule="nonzero"/></g><g clip-path="url(#677bce5326)"><g clip-path="url(#6784802373)"><g clip-path="url(#1ee9a7e33f)"><path fill="#333333" d="M 157.488281 299.027344 L 311.9375 144.578125 L 388.667969 221.3125 L 234.21875 375.757812 Z M 157.488281 299.027344 " fill-opacity="1" fill-rule="nonzero"/></g></g></g><g clip-path="url(#d2fd93ebae)"><g clip-path="url(#bda2e6028a)"><g clip-path="url(#0be9eaf1e2)"><path fill="#737373" d="M 377.714844 247.738281 L 368.367188 257.085938 L 352.8125 241.53125 L 362.15625 232.183594 Z M 359.023438 266.429688 L 349.675781 275.777344 L 334.121094 260.222656 L 343.464844 250.875 Z M 340.328125 285.121094 L 330.984375 294.46875 L 315.429688 278.914062 L 324.773438 269.566406 Z M 321.636719 303.816406 L 312.292969 313.160156 L 296.738281 297.605469 L 306.082031 288.257812 Z M 303.027344 322.425781 L 293.679688 331.769531 L 278.125 316.214844 L 287.472656 306.871094 Z M 284.335938 341.117188 L 274.988281 350.464844 L 259.433594 334.90625 L 268.78125 325.5625 Z M 265.644531 359.808594 L 256.296875 369.15625 L 240.742188 353.597656 L 250.089844 344.253906 Z M 228.332031 354.402344 L 212.785156 369.953125 L 203.433594 360.601562 L 218.984375 345.050781 Z M 372.945312 190.121094 L 357.398438 205.671875 L 348.046875 196.320312 L 363.597656 180.773438 Z M 209.632812 335.703125 L 194.085938 351.253906 L 184.734375 341.902344 L 200.285156 326.351562 Z M 354.246094 171.421875 L 338.699219 186.972656 L 329.347656 177.621094 L 344.898438 162.074219 Z M 190.933594 317.003906 L 175.382812 332.554688 L 166.035156 323.203125 L 181.585938 307.652344 Z M 298.242188 173.746094 L 288.898438 183.09375 L 273.339844 167.539062 L 282.6875 158.191406 Z M 279.550781 192.4375 L 270.203125 201.785156 L 254.648438 186.230469 L 263.996094 176.882812 Z M 260.859375 211.128906 L 251.511719 220.476562 L 235.957031 204.921875 L 245.304688 195.574219 Z M 242.167969 229.824219 L 232.820312 239.167969 L 217.265625 223.613281 L 226.613281 214.265625 Z M 223.554688 248.433594 L 214.210938 257.777344 L 198.65625 242.222656 L 208 232.878906 Z M 204.863281 267.125 L 195.519531 276.472656 L 179.964844 260.914062 L 189.308594 251.570312 Z M 186.171875 285.816406 L 176.828125 295.164062 L 161.273438 279.605469 L 170.617188 270.261719 Z M 186.171875 285.816406 " fill-opacity="1" fill-rule="nonzero"/></g></g></g><g clip-path="url(#ae79b3f801)"><g clip-path="url(#616f11291f)"><g clip-path="url(#e2fa81733c)"><path fill="#737373" d="M 232.957031 114.90625 L 235.375 112.492188 L 282.121094 159.238281 L 279.707031 161.65625 Z M 232.957031 114.90625 " fill-opacity="1" fill-rule="nonzero"/></g></g></g><g clip-path="url(#b60fd4fc10)"><g clip-path="url(#20c17b2f0a)"><g clip-path="url(#738da32b7a)"><path fill="#737373" d="M 232.957031 114.90625 L 282.101562 65.761719 L 285.328125 68.984375 L 236.179688 118.132812 Z M 232.957031 114.90625 " fill-opacity="1" fill-rule="nonzero"/></g></g></g><g clip-path="url(#2fb88c4e2a)"><g clip-path="url(#7a6959316e)"><g clip-path="url(#18f4df0c35)"><path fill="#737373" d="M 289.277344 71.96875 C 294.917969 66.328125 286.210938 57.625 280.570312 63.261719 C 274.933594 68.902344 283.636719 77.609375 289.277344 71.96875 Z M 289.277344 71.96875 " fill-opacity="1" fill-rule="nonzero"/></g></g></g><g clip-path="url(#a88ebf0249)"><g clip-path="url(#35d5852544)"><g clip-path="url(#4d270f009a)"><path fill="#737373" d="M 180.574219 104.421875 L 183.796875 101.199219 L 261.980469 179.382812 L 258.757812 182.605469 Z M 180.574219 104.421875 " fill-opacity="1" fill-rule="nonzero"/></g></g></g><g clip-path="url(#27502d7bfa)"><g clip-path="url(#9da76d3f91)"><g clip-path="url(#907053f3d7)"><path fill="#737373" d="M 180.574219 104.421875 L 218.441406 66.554688 L 220.859375 68.972656 L 182.992188 106.839844 Z M 180.574219 104.421875 " fill-opacity="1" fill-rule="nonzero"/></g></g></g><g clip-path="url(#73fc8426d6)"><g clip-path="url(#d977088af3)"><g clip-path="url(#39380576b4)"><path fill="#737373" d="M 192.652344 45.597656 L 195.066406 43.179688 L 220.859375 68.972656 L 218.445312 71.390625 Z M 192.652344 45.597656 " fill-opacity="1" fill-rule="nonzero"/></g></g></g><g clip-path="url(#35991beb5a)"><g clip-path="url(#543dd2fe5e)"><g clip-path="url(#643d2e2d54)"><path fill="#737373" d="M 198.050781 49.226562 C 203.691406 43.585938 194.984375 34.878906 189.347656 40.519531 C 183.707031 46.160156 192.410156 54.863281 198.050781 49.226562 Z M 198.050781 49.226562 " fill-opacity="1" fill-rule="nonzero"/></g></g></g><g clip-path="url(#a5bc454d25)"><g clip-path="url(#23e44e56b9)"><g clip-path="url(#1a41032daa)"><path fill="#737373" d="M 133.835938 97.964844 L 137.058594 94.742188 L 241.839844 199.523438 L 238.617188 202.746094 Z M 133.835938 97.964844 " fill-opacity="1" fill-rule="nonzero"/></g></g></g><g clip-path="url(#adfc5ffd96)"><g clip-path="url(#4b018e0b52)"><g clip-path="url(#f64bdce182)"><path fill="#737373" d="M 163.664062 161.632812 L 166.082031 159.214844 L 224.113281 217.246094 L 221.695312 219.664062 Z M 163.664062 161.632812 " fill-opacity="1" fill-rule="nonzero"/></g></g></g><g clip-path="url(#b933ff0287)"><g clip-path="url(#35df3ebab9)"><g clip-path="url(#358bdb6fb8)"><path fill="#737373" d="M 166.898438 205.148438 L 169.3125 202.730469 L 203.972656 237.390625 L 201.554688 239.804688 Z M 166.898438 205.148438 " fill-opacity="1" fill-rule="nonzero"/></g></g></g><g clip-path="url(#5b97657adc)"><g clip-path="url(#8bd57859e1)"><g clip-path="url(#0dd8e453be)"><path fill="#737373" d="M 143.53125 228.511719 L 166.898438 205.148438 L 169.316406 207.566406 L 145.949219 230.929688 Z M 143.53125 228.511719 " fill-opacity="1" fill-rule="nonzero"/></g></g></g><g clip-path="url(#67bedb9cdf)"><g clip-path="url(#fc1042ac00)"><g clip-path="url(#7f10ac1b1d)"><path fill="#737373" d="M 99.203125 190.628906 L 102.425781 187.40625 L 145.949219 230.929688 L 142.726562 234.152344 Z M 99.203125 190.628906 " fill-opacity="1" fill-rule="nonzero"/></g></g></g><g clip-path="url(#d546403889)"><g clip-path="url(#799945a395)"><g clip-path="url(#b29254232a)"><path fill="#737373" d="M 163.679688 237.382812 L 166.902344 234.160156 L 187.054688 254.308594 L 183.832031 257.53125 Z M 163.679688 237.382812 " fill-opacity="1" fill-rule="nonzero"/></g></g></g><g clip-path="url(#14368b10c3)"><g clip-path="url(#23f07ad417)"><g clip-path="url(#2dfcee10e5)"><path fill="#737373" d="M 134.675781 266.386719 L 163.679688 237.382812 L 166.097656 239.800781 L 137.09375 268.804688 Z M 134.675781 266.386719 " fill-opacity="1" fill-rule="nonzero"/></g></g></g><g clip-path="url(#f1b317ebc4)"><g clip-path="url(#7d07bbc29f)"><g clip-path="url(#16be692499)"><path fill="#737373" d="M 157.238281 266.390625 L 160.460938 263.167969 L 169.328125 272.035156 L 166.105469 275.257812 Z M 157.238281 266.390625 " fill-opacity="1" fill-rule="nonzero"/></g></g></g><g clip-path="url(#08b8b122fe)"><g clip-path="url(#1b15bf163d)"><g clip-path="url(#6721715785)"><path fill="#737373" d="M 105.675781 317.953125 L 157.238281 266.390625 L 160.464844 269.613281 L 108.902344 321.175781 Z M 105.675781 317.953125 " fill-opacity="1" fill-rule="nonzero"/></g></g></g><g clip-path="url(#0c7ebb7f1b)"><g clip-path="url(#5ab09956d5)"><g clip-path="url(#415df5dc35)"><path fill="#737373" d="M 112.6875 325.933594 C 118.328125 320.292969 109.625 311.585938 103.984375 317.226562 C 98.425781 322.785156 107.128906 331.492188 112.6875 325.933594 Z M 112.6875 325.933594 " fill-opacity="1" fill-rule="nonzero"/></g></g></g><g clip-path="url(#c39d424922)"><g clip-path="url(#f39ac108df)"><g clip-path="url(#2f658f3496)"><path fill="#737373" d="M 139.753906 274.6875 C 145.394531 269.046875 136.691406 260.34375 131.050781 265.980469 C 125.410156 271.621094 134.113281 280.324219 139.753906 274.6875 Z M 139.753906 274.6875 " fill-opacity="1" fill-rule="nonzero"/></g></g></g><g clip-path="url(#e2ae605320)"><g clip-path="url(#4da7bce2df)"><g clip-path="url(#710da058bf)"><path fill="#737373" d="M 105.410156 196.03125 C 111.050781 190.390625 102.34375 181.683594 96.707031 187.324219 C 91.066406 192.964844 99.851562 201.589844 105.410156 196.03125 Z M 105.410156 196.03125 " fill-opacity="1" fill-rule="nonzero"/></g></g></g><g clip-path="url(#4535049413)"><g clip-path="url(#9804dcb9f1)"><g clip-path="url(#508483f9b5)"><path fill="#737373" d="M 168.179688 167.113281 C 173.820312 161.472656 165.113281 152.769531 159.472656 158.40625 C 153.914062 163.96875 162.621094 172.671875 168.179688 167.113281 Z M 168.179688 167.113281 " fill-opacity="1" fill-rule="nonzero"/></g></g></g><g clip-path="url(#fcd1b69703)"><g clip-path="url(#5e4a8ca666)"><g clip-path="url(#fb13bac8b0)"><path fill="#737373" d="M 137.785156 100.949219 C 143.425781 95.308594 134.71875 86.601562 129.082031 92.242188 C 123.441406 97.882812 132.144531 106.585938 137.785156 100.949219 Z M 137.785156 100.949219 " fill-opacity="1" fill-rule="nonzero"/></g></g></g><g clip-path="url(#da48763940)"><g clip-path="url(#ec2339a133)"><g clip-path="url(#9a7cb88b4d)"><path fill="#737373" d="M 345.785156 164.894531 L 389.292969 121.386719 L 392.515625 124.609375 L 349.007812 168.117188 Z M 345.785156 164.894531 " fill-opacity="1" fill-rule="nonzero"/></g></g></g><g clip-path="url(#b82f826d17)"><g clip-path="url(#5cd4b08791)"><g clip-path="url(#7c660f5eb5)"><path fill="#737373" d="M 365.933594 185.042969 L 400.578125 150.398438 L 403.804688 153.625 L 369.160156 188.265625 Z M 365.933594 185.042969 " fill-opacity="1" fill-rule="nonzero"/></g></g></g><g clip-path="url(#c439948a7f)"><g clip-path="url(#8de16473fb)"><g clip-path="url(#819058c25b)"><path fill="#737373" d="M 401.386719 156.039062 L 403.804688 153.625 L 444.101562 193.921875 L 441.6875 196.339844 Z M 401.386719 156.039062 " fill-opacity="1" fill-rule="nonzero"/></g></g></g><g clip-path="url(#a7b4cca0ae)"><g clip-path="url(#9561398414)"><g clip-path="url(#f93f53c0bb)"><path fill="#737373" d="M 395.578125 127.996094 C 401.21875 122.355469 392.511719 113.652344 386.875 119.292969 C 381.234375 124.929688 389.9375 133.636719 395.578125 127.996094 Z M 395.578125 127.996094 " fill-opacity="1" fill-rule="nonzero"/></g></g></g><g clip-path="url(#32fe74b689)"><g clip-path="url(#df175853b8)"><g clip-path="url(#db1a166e75)"><path fill="#737373" d="M 448.214844 199.96875 C 453.855469 194.328125 445.148438 185.625 439.507812 191.261719 C 433.871094 196.902344 442.574219 205.609375 448.214844 199.96875 Z M 448.214844 199.96875 " fill-opacity="1" fill-rule="nonzero"/></g></g></g><g clip-path="url(#9230f640f0)"><g clip-path="url(#a8686580b9)"><g clip-path="url(#833b7cc41d)"><path fill="#737373" d="M 372.394531 254.347656 L 374.8125 251.929688 L 423.980469 301.097656 L 421.5625 303.511719 Z M 372.394531 254.347656 " fill-opacity="1" fill-rule="nonzero"/></g></g></g><g clip-path="url(#d2652f186c)"><g clip-path="url(#b5685c4cff)"><g clip-path="url(#b1f98c8838)"><path fill="#737373" d="M 421.5625 303.511719 L 470.707031 254.367188 L 473.125 256.785156 L 423.980469 305.929688 Z M 421.5625 303.511719 " fill-opacity="1" fill-rule="nonzero"/></g></g></g><g clip-path="url(#cab31cc152)"><g clip-path="url(#e964f96a70)"><g clip-path="url(#85a12fa696)"><path fill="#737373" d="M 354.671875 272.070312 L 357.894531 268.847656 L 427.210938 338.164062 L 423.988281 341.386719 Z M 354.671875 272.070312 " fill-opacity="1" fill-rule="nonzero"/></g></g></g><g clip-path="url(#0660a32ba3)"><g clip-path="url(#97897fdab1)"><g clip-path="url(#33c67b730c)"><path fill="#737373" d="M 423.988281 341.386719 L 470.714844 294.660156 L 473.941406 297.882812 L 427.210938 344.613281 Z M 423.988281 341.386719 " fill-opacity="1" fill-rule="nonzero"/></g></g></g><g clip-path="url(#05280d786d)"><g clip-path="url(#e16ec2f106)"><g clip-path="url(#a4161995fb)"><path fill="#737373" d="M 334.53125 292.214844 L 336.945312 289.796875 L 406.261719 359.113281 L 403.84375 361.53125 Z M 334.53125 292.214844 " fill-opacity="1" fill-rule="nonzero"/></g></g></g><g clip-path="url(#a2bd83e76f)"><g clip-path="url(#9ec54da4b3)"><g clip-path="url(#4577d639de)"><path fill="#737373" d="M 415.296875 408.109375 L 380.492188 442.914062 L 377.269531 439.691406 L 410.867188 406.09375 L 411.347656 404.480469 L 313.582031 306.714844 L 316.804688 303.492188 L 415.78125 402.46875 Z M 415.296875 408.109375 " fill-opacity="1" fill-rule="nonzero"/></g></g></g><g clip-path="url(#e0c5da7a31)"><g clip-path="url(#9d3c6d6424)"><g clip-path="url(#07a4217e10)"><path fill="#737373" d="M 293.4375 326.855469 L 296.660156 323.632812 L 374.84375 401.816406 L 371.621094 405.039062 Z M 293.4375 326.855469 " fill-opacity="1" fill-rule="nonzero"/></g></g></g><g clip-path="url(#7b3e63825d)"><g clip-path="url(#743292e8dd)"><g clip-path="url(#b4c6443798)"><path fill="#737373" d="M 365.828125 439.847656 L 336.984375 468.691406 L 334.566406 466.273438 L 362.199219 438.640625 L 362.441406 436.140625 L 270.878906 344.578125 L 274.101562 341.355469 L 366.792969 434.046875 Z M 365.828125 439.847656 " fill-opacity="1" fill-rule="nonzero"/></g></g></g><g clip-path="url(#128b2b1340)"><g clip-path="url(#e632c30bb1)"><g clip-path="url(#b4692e60d6)"><path fill="#737373" d="M 299.339844 408.003906 L 264.453125 442.890625 L 262.035156 440.472656 L 295.710938 406.796875 L 295.46875 404.621094 L 253.152344 362.304688 L 256.375 359.082031 L 299.820312 402.523438 Z M 299.339844 408.003906 " fill-opacity="1" fill-rule="nonzero"/></g></g></g><g clip-path="url(#91bee2f29d)"><g clip-path="url(#4f7d07a844)"><g clip-path="url(#95ef8bd4a4)"><path fill="#737373" d="M 476.1875 260.816406 C 481.828125 255.175781 473.125 246.46875 467.484375 252.109375 C 461.84375 257.75 470.550781 266.453125 476.1875 260.816406 Z M 476.1875 260.816406 " fill-opacity="1" fill-rule="nonzero"/></g></g></g><g clip-path="url(#8c2946a59f)"><g clip-path="url(#7cbf9265c1)"><g clip-path="url(#718b19523f)"><path fill="#737373" d="M 476.117188 302.316406 C 481.757812 296.675781 473.050781 287.96875 467.414062 293.609375 C 461.773438 299.25 470.558594 307.875 476.117188 302.316406 Z M 476.117188 302.316406 " fill-opacity="1" fill-rule="nonzero"/></g></g></g><g clip-path="url(#ba11a4a728)"><g clip-path="url(#34f6075196)"><g clip-path="url(#7fb8ce7ffd)"><path fill="#737373" d="M 409.085938 366.445312 C 414.722656 360.804688 406.019531 352.101562 400.378906 357.742188 C 394.738281 363.382812 403.445312 372.085938 409.085938 366.445312 Z M 409.085938 366.445312 " fill-opacity="1" fill-rule="nonzero"/></g></g></g><g clip-path="url(#4803f3317b)"><g clip-path="url(#3811121c03)"><g clip-path="url(#049157a78e)"><path fill="#737373" d="M 377.664062 410.4375 C 383.304688 404.796875 374.601562 396.09375 368.960938 401.734375 C 363.402344 407.292969 372.105469 415.996094 377.664062 410.4375 Z M 377.664062 410.4375 " fill-opacity="1" fill-rule="nonzero"/></g></g></g><g clip-path="url(#f3c37bcb71)"><g clip-path="url(#afa1aa1477)"><g clip-path="url(#49886769ab)"><path fill="#737373" d="M 384.039062 447.589844 C 389.679688 441.949219 380.972656 433.246094 375.335938 438.882812 C 369.695312 444.523438 378.398438 453.226562 384.039062 447.589844 Z M 384.039062 447.589844 " fill-opacity="1" fill-rule="nonzero"/></g></g></g><g clip-path="url(#f5098b3988)"><g clip-path="url(#75b4e03f83)"><g clip-path="url(#1d54c030da)"><path fill="#737373" d="M 339.078125 473.207031 C 344.71875 467.566406 336.015625 458.859375 330.375 464.5 C 324.816406 470.058594 333.519531 478.765625 339.078125 473.207031 Z M 339.078125 473.207031 " fill-opacity="1" fill-rule="nonzero"/></g></g></g><g clip-path="url(#f252f302c7)"><g clip-path="url(#bc302f6adf)"><g clip-path="url(#1781fd8f9f)"><path fill="#737373" d="M 266.710938 448.046875 C 272.347656 442.410156 263.644531 433.703125 258.003906 439.34375 C 252.367188 444.984375 261.070312 453.6875 266.710938 448.046875 Z M 266.710938 448.046875 " fill-opacity="1" fill-rule="nonzero"/></g></g></g><g clip-path="url(#c50cb0a429)"><g clip-path="url(#396af80f72)"><g clip-path="url(#7f449e20a3)"><path fill="#737373" d="M 113.746094 379.199219 L 171.757812 321.191406 L 174.980469 324.414062 L 116.972656 382.421875 Z M 113.746094 379.199219 " fill-opacity="1" fill-rule="nonzero"/></g></g></g><g clip-path="url(#6f248729f8)"><g clip-path="url(#4b8f6c02ea)"><g clip-path="url(#9ab3acf45b)"><path fill="#737373" d="M 111.339844 421.90625 L 195.128906 338.117188 L 198.351562 341.339844 L 114.5625 425.132812 Z M 111.339844 421.90625 " fill-opacity="1" fill-rule="nonzero"/></g></g></g><g clip-path="url(#48356a9196)"><g clip-path="url(#5b57e6beba)"><g clip-path="url(#af81b26aa8)"><path fill="#737373" d="M 58.949219 375.964844 L 62.171875 372.742188 L 114.5625 425.132812 L 111.339844 428.355469 Z M 58.949219 375.964844 " fill-opacity="1" fill-rule="nonzero"/></g></g></g><g clip-path="url(#c89f91e058)"><g clip-path="url(#55b93e530d)"><g clip-path="url(#cb196dd5d7)"><path fill="#737373" d="M 198.375 450.933594 L 195.152344 454.15625 L 156.785156 415.792969 L 156.382812 412.328125 L 212.859375 355.847656 L 215.277344 358.265625 L 160.011719 413.535156 L 161.21875 413.777344 Z M 198.375 450.933594 " fill-opacity="1" fill-rule="nonzero"/></g></g></g><g clip-path="url(#93e0855262)"><g clip-path="url(#07d5b9aa8d)"><g clip-path="url(#daaf09478e)"><path fill="#737373" d="M 65.398438 379.992188 C 71.039062 374.355469 62.332031 365.648438 56.691406 371.289062 C 51.132812 376.847656 59.839844 385.554688 65.398438 379.992188 Z M 65.398438 379.992188 " fill-opacity="1" fill-rule="nonzero"/></g></g></g><g clip-path="url(#3a4942e1f7)"><g clip-path="url(#ffbf37d423)"><g clip-path="url(#2dfecc8683)"><path fill="#737373" d="M 120.4375 384.761719 C 126.078125 379.121094 117.371094 370.414062 111.734375 376.054688 C 106.09375 381.695312 114.796875 390.398438 120.4375 384.761719 Z M 120.4375 384.761719 " fill-opacity="1" fill-rule="nonzero"/></g></g></g><g clip-path="url(#f926dd89dd)"><g clip-path="url(#b51eb78307)"><g clip-path="url(#76076426e7)"><path fill="#737373" d="M 201.035156 459.558594 C 206.675781 453.917969 197.972656 445.214844 192.332031 450.851562 C 186.773438 456.574219 195.398438 465.199219 201.035156 459.558594 Z M 201.035156 459.558594 " fill-opacity="1" fill-rule="nonzero"/></g></g></g><path fill="#1bd64f" d="M 1757.546875 550.390625 L 1743.609375 543.410156 L 1743.609375 566.675781 C 1743.609375 574.582031 1746.070312 581.90625 1750.261719 587.9375 L 1757.546875 580.640625 Z M 1757.546875 550.390625 " fill-opacity="1" fill-rule="nonzero"/><path fill="#540c94" d="M 1804.003906 550.390625 L 1817.9375 543.410156 L 1817.9375 503.851562 L 1787.742188 485.234375 L 1780.773438 485.234375 C 1760.25 485.234375 1743.609375 501.90625 1743.609375 522.464844 L 1743.609375 543.410156 L 1757.546875 550.390625 L 1757.546875 580.640625 L 1750.261719 587.9375 C 1756.976562 597.589844 1768.140625 603.90625 1780.773438 603.90625 C 1793.410156 603.90625 1804.570312 597.589844 1811.285156 587.9375 L 1804.003906 580.640625 Z M 1804.003906 550.390625 " fill-opacity="1" fill-rule="nonzero"/><path fill="#1bd64f" d="M 1817.9375 543.410156 L 1804.003906 550.390625 L 1804.003906 580.640625 L 1811.285156 587.9375 C 1815.480469 581.90625 1817.9375 574.582031 1817.9375 566.675781 Z M 1817.9375 543.410156 " fill-opacity="1" fill-rule="nonzero"/><path fill="#1bd64f" d="M 1757.546875 550.390625 L 1757.546875 580.640625 L 1750.261719 587.9375 C 1746.070312 581.90625 1743.609375 574.582031 1743.609375 566.675781 L 1743.609375 543.410156 Z M 1757.546875 550.390625 " fill-opacity="1" fill-rule="nonzero"/><path fill="#540c94" d="M 1807.566406 497.457031 L 1807.566406 541.359375 L 1780.773438 554.558594 L 1780.773438 485.234375 L 1787.742188 485.234375 Z M 1807.566406 497.457031 " fill-opacity="1" fill-rule="nonzero"/><path fill="#1bd64f" d="M 1817.9375 543.410156 L 1817.9375 566.675781 C 1817.9375 574.582031 1815.480469 581.90625 1811.289062 587.9375 L 1804.003906 580.640625 L 1804.003906 550.390625 Z M 1817.9375 543.410156 " fill-opacity="1" fill-rule="nonzero"/><path fill="#1bd64f" d="M 1776.128906 524.792969 L 1776.128906 475.929688 L 1757.546875 488.144531 L 1757.546875 538.753906 L 1780.773438 550.390625 L 1780.773438 524.792969 Z M 1776.128906 524.792969 " fill-opacity="1" fill-rule="nonzero"/><path fill="#1bd64f" d="M 1785.421875 524.792969 L 1785.421875 475.929688 L 1804.003906 488.144531 L 1804.003906 538.753906 L 1780.773438 550.390625 L 1780.773438 524.792969 Z M 1785.421875 524.792969 " fill-opacity="1" fill-rule="nonzero"/><path fill="#737373" d="M 1780.773438 531.773438 C 1776.925781 531.773438 1773.804688 528.648438 1773.804688 524.792969 L 1773.804688 501.523438 C 1773.804688 497.667969 1776.925781 494.542969 1780.773438 494.542969 C 1784.625 494.542969 1787.742188 497.667969 1787.742188 501.523438 L 1787.742188 524.792969 C 1787.742188 528.648438 1784.625 531.773438 1780.773438 531.773438 Z M 1780.773438 531.773438 " fill-opacity="1" fill-rule="nonzero"/><path fill="#737373" d="M 1817.9375 503.851562 L 1827.230469 510.539062 L 1827.230469 520.140625 L 1834.199219 531.773438 L 1834.199219 555.042969 C 1828.089844 558.101562 1822.773438 562.546875 1818.675781 568.023438 L 1817.9375 569.003906 Z M 1817.9375 503.851562 " fill-opacity="1" fill-rule="nonzero"/><g clip-path="url(#cb38072ae5)"><path fill="#000000" d="M 1836.191406 530.578125 L 1829.554688 519.496094 L 1829.554688 510.539062 C 1829.554688 509.792969 1829.191406 509.089844 1828.585938 508.652344 L 1806.324219 493.960938 L 1806.324219 488.144531 C 1806.324219 487.359375 1805.929688 486.628906 1805.277344 486.199219 L 1786.695312 473.984375 C 1785.980469 473.515625 1785.066406 473.476562 1784.316406 473.878906 C 1783.566406 474.285156 1783.097656 475.074219 1783.097656 475.929688 L 1783.097656 482.910156 L 1780.773438 482.910156 C 1780 482.910156 1779.226562 482.933594 1778.453125 482.980469 L 1778.453125 475.929688 C 1778.453125 475.074219 1777.984375 474.285156 1777.234375 473.878906 C 1776.480469 473.472656 1775.570312 473.511719 1774.855469 473.984375 L 1756.273438 486.199219 C 1755.617188 486.628906 1755.222656 487.359375 1755.222656 488.144531 L 1755.222656 492.308594 C 1746.363281 499.851562 1741.289062 510.808594 1741.289062 522.464844 L 1741.289062 566.675781 C 1741.289062 588.488281 1759 606.234375 1780.773438 606.234375 C 1801.445312 606.234375 1818.453125 590.242188 1820.125 569.964844 L 1820.53125 569.417969 C 1824.394531 564.257812 1829.480469 560.007812 1835.238281 557.125 C 1836.023438 556.730469 1836.519531 555.925781 1836.519531 555.042969 L 1836.519531 531.773438 C 1836.519531 531.351562 1836.40625 530.9375 1836.191406 530.578125 Z M 1810.878906 584.234375 L 1806.324219 579.675781 L 1806.324219 551.828125 L 1815.617188 547.171875 L 1815.617188 566.675781 C 1815.617188 573.074219 1813.886719 579.074219 1810.878906 584.234375 Z M 1801.679688 489.402344 L 1801.679688 537.316406 L 1783.097656 546.625 L 1783.097656 533.804688 C 1787.101562 532.769531 1790.066406 529.121094 1790.066406 524.792969 L 1790.066406 501.523438 C 1790.066406 499.171875 1789.1875 497.019531 1787.742188 495.378906 L 1787.742188 480.238281 Z M 1776.128906 515.484375 L 1785.421875 515.484375 L 1785.421875 520.140625 L 1776.128906 520.140625 Z M 1776.128906 506.179688 L 1785.421875 506.179688 L 1785.421875 510.832031 L 1776.128906 510.832031 Z M 1785.421875 501.523438 L 1776.128906 501.523438 C 1776.128906 498.957031 1778.214844 496.871094 1780.773438 496.871094 C 1783.335938 496.871094 1785.421875 498.957031 1785.421875 501.523438 Z M 1785.421875 524.792969 C 1785.421875 527.359375 1783.335938 529.445312 1780.773438 529.445312 C 1778.214844 529.445312 1776.128906 527.359375 1776.128906 524.792969 Z M 1780.773438 487.5625 L 1783.097656 487.5625 L 1783.097656 492.511719 C 1782.355469 492.320312 1781.578125 492.214844 1780.773438 492.214844 C 1779.972656 492.214844 1779.195312 492.320312 1778.453125 492.511719 L 1778.453125 487.640625 C 1779.226562 487.589844 1780 487.5625 1780.773438 487.5625 Z M 1759.871094 489.402344 L 1773.804688 480.238281 L 1773.804688 495.378906 C 1772.363281 497.019531 1771.484375 499.171875 1771.484375 501.523438 L 1771.484375 524.792969 C 1771.484375 529.121094 1774.449219 532.769531 1778.453125 533.804688 L 1778.453125 546.625 L 1759.871094 537.316406 Z M 1745.933594 547.171875 L 1755.222656 551.828125 L 1755.222656 579.675781 L 1750.671875 584.234375 C 1747.660156 579.074219 1745.933594 573.074219 1745.933594 566.675781 Z M 1780.773438 601.582031 C 1769.640625 601.582031 1759.710938 596.324219 1753.328125 588.15625 L 1759.191406 582.285156 C 1759.625 581.847656 1759.871094 581.257812 1759.871094 580.640625 L 1759.871094 550.390625 C 1759.871094 549.507812 1759.371094 548.703125 1758.585938 548.308594 L 1745.933594 541.96875 L 1745.933594 522.464844 C 1745.933594 513.578125 1749.273438 505.15625 1755.222656 498.734375 L 1755.222656 538.753906 C 1755.222656 539.636719 1755.722656 540.441406 1756.507812 540.835938 L 1779.734375 552.46875 C 1780.070312 552.636719 1780.421875 552.714844 1780.773438 552.714844 C 1781.136719 552.714844 1781.488281 552.625 1781.8125 552.464844 L 1781.8125 552.46875 L 1805.042969 540.835938 C 1805.828125 540.441406 1806.324219 539.636719 1806.324219 538.753906 L 1806.324219 499.421875 L 1815.617188 505.152344 L 1815.617188 541.96875 L 1802.964844 548.308594 C 1802.175781 548.703125 1801.679688 549.507812 1801.679688 550.390625 L 1801.679688 580.640625 C 1801.679688 581.257812 1801.925781 581.847656 1802.359375 582.285156 L 1808.21875 588.15625 C 1801.835938 596.324219 1791.90625 601.582031 1780.773438 601.582031 Z M 1831.875 553.632812 C 1827.570312 555.960938 1823.632812 558.988281 1820.261719 562.542969 L 1820.261719 508.390625 L 1824.90625 511.734375 L 1824.90625 520.140625 C 1824.90625 520.5625 1825.023438 520.976562 1825.238281 521.335938 L 1831.875 532.417969 Z M 1831.875 553.632812 " fill-opacity="1" fill-rule="nonzero"/></g><path fill="#000000" d="M 1780.773438 571.332031 C 1779.492188 571.332031 1778.453125 572.375 1778.453125 573.660156 L 1778.453125 575.984375 C 1778.453125 577.269531 1779.492188 578.3125 1780.773438 578.3125 C 1782.058594 578.3125 1783.097656 577.269531 1783.097656 575.984375 L 1783.097656 573.660156 C 1783.097656 572.375 1782.058594 571.332031 1780.773438 571.332031 Z M 1780.773438 571.332031 " fill-opacity="1" fill-rule="nonzero"/><path fill="#000000" d="M 1790.066406 571.332031 C 1788.78125 571.332031 1787.742188 572.375 1787.742188 573.660156 L 1787.742188 575.984375 C 1787.742188 577.269531 1788.78125 578.3125 1790.066406 578.3125 C 1791.347656 578.3125 1792.386719 577.269531 1792.386719 575.984375 L 1792.386719 573.660156 C 1792.386719 572.375 1791.347656 571.332031 1790.066406 571.332031 Z M 1790.066406 571.332031 " fill-opacity="1" fill-rule="nonzero"/><path fill="#000000" d="M 1771.484375 571.332031 C 1770.199219 571.332031 1769.160156 572.375 1769.160156 573.660156 L 1769.160156 575.984375 C 1769.160156 577.269531 1770.199219 578.3125 1771.484375 578.3125 C 1772.765625 578.3125 1773.804688 577.269531 1773.804688 575.984375 L 1773.804688 573.660156 C 1773.804688 572.375 1772.765625 571.332031 1771.484375 571.332031 Z M 1771.484375 571.332031 " fill-opacity="1" fill-rule="nonzero"/><path fill="#000000" d="M 1771.484375 582.964844 C 1770.199219 582.964844 1769.160156 584.007812 1769.160156 585.292969 L 1769.160156 587.621094 C 1769.160156 588.90625 1770.199219 589.945312 1771.484375 589.945312 C 1772.765625 589.945312 1773.804688 588.90625 1773.804688 587.621094 L 1773.804688 585.292969 C 1773.804688 584.007812 1772.765625 582.964844 1771.484375 582.964844 Z M 1771.484375 582.964844 " fill-opacity="1" fill-rule="nonzero"/><path fill="#000000" d="M 1780.773438 582.964844 C 1779.492188 582.964844 1778.453125 584.007812 1778.453125 585.292969 L 1778.453125 587.621094 C 1778.453125 588.90625 1779.492188 589.945312 1780.773438 589.945312 C 1782.058594 589.945312 1783.097656 588.90625 1783.097656 587.621094 L 1783.097656 585.292969 C 1783.097656 584.007812 1782.058594 582.964844 1780.773438 582.964844 Z M 1780.773438 582.964844 " fill-opacity="1" fill-rule="nonzero"/><path fill="#000000" d="M 1790.066406 582.964844 C 1788.78125 582.964844 1787.742188 584.007812 1787.742188 585.292969 L 1787.742188 587.621094 C 1787.742188 588.90625 1788.78125 589.945312 1790.066406 589.945312 C 1791.347656 589.945312 1792.386719 588.90625 1792.386719 587.621094 L 1792.386719 585.292969 C 1792.386719 584.007812 1791.347656 582.964844 1790.066406 582.964844 Z M 1790.066406 582.964844 " fill-opacity="1" fill-rule="nonzero"/><path fill="#000000" d="M 1745.425781 492.050781 C 1745.597656 492.089844 1745.765625 492.105469 1745.933594 492.105469 C 1747 492.105469 1747.957031 491.371094 1748.199219 490.289062 C 1749.203125 485.796875 1752.035156 481.855469 1755.964844 479.472656 L 1756.863281 478.925781 C 1757.960938 478.261719 1758.3125 476.828125 1757.648438 475.730469 C 1756.984375 474.632812 1755.558594 474.277344 1754.460938 474.945312 L 1753.558594 475.492188 C 1748.550781 478.527344 1744.945312 483.550781 1743.667969 489.269531 C 1743.386719 490.523438 1744.171875 491.769531 1745.425781 492.050781 Z M 1745.425781 492.050781 " fill-opacity="1" fill-rule="nonzero"/><g clip-path="url(#a89997c5fa)"><path fill="#ffffff" d="M 1210.453125 1033.351562 L 709.519531 1033.351562 C 635.902344 1033.351562 576 973.492188 576 899.898438 C 576 826.304688 635.902344 766.421875 709.519531 766.421875 L 1210.453125 766.421875 C 1284.066406 766.421875 1343.972656 826.304688 1343.972656 899.898438 C 1343.972656 973.492188 1284.066406 1033.351562 1210.453125 1033.351562 Z M 709.519531 785.964844 C 646.683594 785.964844 595.550781 837.082031 595.550781 899.898438 C 595.550781 962.714844 646.683594 1013.835938 709.519531 1013.835938 L 1210.453125 1013.835938 C 1273.289062 1013.835938 1324.421875 962.714844 1324.421875 899.898438 C 1324.421875 837.082031 1273.289062 785.964844 1210.453125 785.964844 Z M 792.800781 877.398438 C 792.800781 852.914062 774.898438 845.347656 753.058594 845.347656 L 715.972656 845.347656 L 715.972656 948.3125 L 739.261719 948.3125 L 739.261719 911.234375 L 752.054688 911.234375 L 771.714844 948.28125 L 797.769531 948.28125 L 774.453125 907.101562 C 785.453125 902.132812 792.800781 892.527344 792.800781 877.398438 Z M 739.261719 863.800781 L 751.160156 863.800781 C 763.417969 863.800781 769.984375 867.207031 769.984375 877.367188 C 769.984375 887.503906 763.390625 892.722656 751.160156 892.722656 L 739.261719 892.722656 Z M 836.113281 905.035156 L 871.21875 905.035156 L 871.21875 885.519531 L 836.113281 885.519531 L 836.113281 864.863281 L 877.363281 864.863281 L 877.363281 845.347656 L 812.824219 845.347656 L 812.824219 948.3125 L 878.925781 948.3125 L 878.925781 928.796875 L 836.113281 928.796875 Z M 918.582031 845.320312 L 886.242188 948.28125 L 910.039062 948.28125 L 916.40625 923.769531 L 947.796875 923.769531 L 954.136719 948.28125 L 978.765625 948.28125 L 946.425781 845.320312 Z M 921.097656 905.679688 L 923.582031 896.160156 C 926.429688 885.855469 929.195312 873.824219 931.683594 862.964844 L 932.324219 862.964844 C 935.0625 873.710938 937.824219 885.882812 940.675781 896.160156 L 943.132812 905.679688 Z M 1017.808594 845.320312 L 988.679688 845.320312 L 988.679688 948.28125 L 1019.09375 948.28125 C 1049.253906 948.28125 1069.503906 931.753906 1069.503906 896.355469 C 1069.53125 860.980469 1049.253906 845.320312 1017.808594 845.320312 Z M 1016.386719 929.550781 L 1011.972656 929.550781 L 1011.972656 864.078125 L 1016.386719 864.078125 C 1033.839844 864.078125 1045.652344 871.757812 1045.652344 896.382812 C 1045.679688 920.976562 1033.867188 929.550781 1016.386719 929.550781 Z M 1124.351562 868.964844 C 1121.53125 876.671875 1118.597656 883.816406 1115.667969 891.773438 L 1114.996094 891.773438 C 1112.0625 883.789062 1109.355469 876.671875 1106.617188 868.964844 L 1097.429688 845.320312 L 1072.519531 845.320312 L 1103.546875 911.542969 L 1103.546875 948.253906 L 1126.835938 948.253906 L 1126.835938 911.570312 L 1157.863281 845.347656 L 1133.539062 845.347656 Z M 1188.640625 920.921875 C 1180.597656 920.921875 1174.621094 927.289062 1174.621094 935.578125 C 1174.621094 943.789062 1180.597656 950.179688 1188.640625 950.179688 C 1196.683594 950.179688 1202.660156 943.816406 1202.660156 935.578125 C 1202.660156 927.316406 1196.683594 920.921875 1188.640625 920.921875 Z M 1198.441406 869.246094 C 1198.441406 881.195312 1175.292969 890.101562 1178.503906 911.738281 L 1198.804688 911.738281 C 1196.933594 893.058594 1220.671875 887.085938 1220.671875 867.625 C 1220.671875 848.949219 1207.714844 840.542969 1190.734375 840.542969 C 1178.417969 840.542969 1168.058594 846.433594 1160.628906 854.894531 L 1173.421875 866.59375 C 1177.75 862.292969 1182.023438 859.277344 1187.832031 859.277344 C 1194.058594 859.277344 1198.441406 862.769531 1198.441406 869.246094 Z M 1198.441406 869.246094 " fill-opacity="1" fill-rule="nonzero"/></g><g fill="#ffffff" fill-opacity="1"><g transform="translate(509.533676, 560.993809)"><g><path d="M 71.015625 -93.09375 C 65.25 -97.101562 57.09375 -99 45.984375 -99 L 15.539062 -99 L 15.539062 0 L 28.125 0 L 28.125 -38.460938 L 45.984375 -38.460938 C 57.445312 -38.460938 65.8125 -40.851562 71.578125 -45.84375 C 78.328125 -51.046875 81.632812 -59.554688 81.632812 -70.242188 C 81.632812 -80.929688 78.117188 -88.523438 71.015625 -93.09375 Z M 63.703125 -54.84375 C 59.695312 -50.765625 53.226562 -49.429688 44.367188 -49.429688 L 28.125 -49.429688 L 28.125 -88.101562 L 44.367188 -88.101562 C 53.015625 -88.101562 59.273438 -87.1875 63.492188 -83.742188 C 66.796875 -81 68.765625 -76.5 68.765625 -69.75 C 68.765625 -62.71875 66.9375 -58.007812 63.703125 -54.84375 Z M 63.703125 -54.84375 "/></g></g><g transform="translate(597.91648, 560.993809)"><g><path d="M 68.625 -87.539062 L 68.625 -99 L 15.539062 -99 L 15.539062 0 L 68.625 0 L 68.625 -11.460938 L 28.40625 -11.460938 L 28.40625 -43.804688 L 63.84375 -43.804688 L 63.84375 -55.125 L 28.40625 -55.125 L 28.40625 -87.539062 Z M 68.625 -87.539062 "/></g></g><g transform="translate(675.119598, 560.993809)"><g><path d="M 83.8125 0 L 59.132812 -39.796875 C 64.195312 -40.992188 68.273438 -43.03125 71.578125 -45.84375 C 78.328125 -51.046875 81.632812 -59.554688 81.632812 -70.242188 C 81.632812 -80.929688 78.117188 -88.523438 71.015625 -93.09375 C 65.25 -97.101562 57.09375 -99 45.984375 -99 L 15.539062 -99 L 15.539062 0 L 28.125 0 L 28.125 -38.460938 L 46.828125 -38.460938 L 69.117188 0 Z M 28.125 -88.101562 L 44.367188 -88.101562 C 53.015625 -88.101562 59.273438 -87.1875 63.492188 -83.742188 C 66.796875 -81 68.765625 -76.5 68.765625 -69.75 C 68.765625 -62.71875 66.9375 -58.007812 63.703125 -54.84375 C 59.695312 -50.765625 53.226562 -49.429688 44.367188 -49.429688 L 28.125 -49.429688 Z M 28.125 -88.101562 "/></g></g><g transform="translate(766.736777, 560.993809)"><g><path d="M 15.539062 0 L 28.125 0 L 28.125 -99 L 15.539062 -99 Z M 15.539062 0 "/></g></g><g transform="translate(810.400836, 560.993809)"><g><path d="M 69.046875 -87.539062 L 69.046875 -99 L 15.539062 -99 L 15.539062 0 L 28.40625 0 L 28.40625 -43.804688 L 63.84375 -43.804688 L 63.84375 -55.195312 L 28.40625 -55.195312 L 28.40625 -87.539062 Z M 69.046875 -87.539062 "/></g></g><g transform="translate(885.143017, 560.993809)"><g><path d="M 62.859375 -126.421875 L 55.335938 -132.1875 L 37.6875 -109.265625 L 47.039062 -109.265625 Z M 68.625 -87.539062 L 68.625 -99 L 15.539062 -99 L 15.539062 0 L 68.625 0 L 68.625 -11.460938 L 28.40625 -11.460938 L 28.40625 -43.804688 L 63.84375 -43.804688 L 63.84375 -55.125 L 28.40625 -55.125 L 28.40625 -87.539062 Z M 68.625 -87.539062 "/></g></g><g transform="translate(962.346135, 560.993809)"><g><path d="M 83.8125 0 L 59.132812 -39.796875 C 64.195312 -40.992188 68.273438 -43.03125 71.578125 -45.84375 C 78.328125 -51.046875 81.632812 -59.554688 81.632812 -70.242188 C 81.632812 -80.929688 78.117188 -88.523438 71.015625 -93.09375 C 65.25 -97.101562 57.09375 -99 45.984375 -99 L 15.539062 -99 L 15.539062 0 L 28.125 0 L 28.125 -38.460938 L 46.828125 -38.460938 L 69.117188 0 Z M 28.125 -88.101562 L 44.367188 -88.101562 C 53.015625 -88.101562 59.273438 -87.1875 63.492188 -83.742188 C 66.796875 -81 68.765625 -76.5 68.765625 -69.75 C 68.765625 -62.71875 66.9375 -58.007812 63.703125 -54.84375 C 59.695312 -50.765625 53.226562 -49.429688 44.367188 -49.429688 L 28.125 -49.429688 Z M 28.125 -88.101562 "/></g></g><g transform="translate(1053.963314, 560.993809)"><g><path d="M 15.539062 0 L 28.125 0 L 28.125 -99 L 15.539062 -99 Z M 15.539062 0 "/></g></g><g transform="translate(1097.627372, 560.993809)"><g><path d="M 57.9375 1.335938 C 77.484375 1.335938 93.9375 -8.296875 101.671875 -24.960938 L 90.070312 -29.671875 C 84.023438 -17.4375 72.070312 -10.6875 57.9375 -10.6875 C 37.40625 -10.6875 21.164062 -24.75 21.164062 -49.570312 C 21.164062 -74.25 37.40625 -88.3125 57.9375 -88.3125 C 72.070312 -88.3125 84.023438 -81.492188 90.070312 -69.257812 L 101.671875 -74.039062 C 93.9375 -90.632812 77.484375 -100.335938 57.9375 -100.335938 C 30.023438 -100.335938 8.648438 -81.140625 8.648438 -49.570312 C 8.648438 -17.859375 30.023438 1.335938 57.9375 1.335938 Z M 57.9375 1.335938 "/></g></g><g transform="translate(1205.346112, 560.993809)"><g><path d="M 57.9375 1.335938 C 85.570312 1.335938 107.085938 -17.859375 107.085938 -49.570312 C 107.085938 -81.140625 85.570312 -100.335938 57.9375 -100.335938 C 30.023438 -100.335938 8.648438 -81.140625 8.648438 -49.570312 C 8.648438 -17.859375 30.023438 1.335938 57.9375 1.335938 Z M 57.9375 -10.546875 C 37.40625 -10.546875 21.164062 -24.609375 21.164062 -49.570312 C 21.164062 -74.25 37.40625 -88.3125 57.9375 -88.3125 C 78.328125 -88.3125 94.5 -74.25 94.5 -49.570312 C 94.5 -24.609375 78.328125 -10.546875 57.9375 -10.546875 Z M 57.9375 -10.546875 "/></g></g><g transform="translate(1321.080477, 560.993809)"><g><path d="M 46.195312 1.335938 C 65.53125 1.335938 81.140625 -7.804688 81.140625 -26.789062 C 81.140625 -46.898438 63.070312 -51.539062 47.109375 -55.757812 C 34.242188 -59.0625 22.992188 -62.15625 22.992188 -73.195312 C 22.992188 -84.867188 33.398438 -89.4375 43.664062 -89.4375 C 55.125 -89.4375 64.828125 -84.375 67.851562 -73.265625 L 79.59375 -76.289062 C 75.867188 -92.882812 60.609375 -100.335938 43.171875 -100.335938 C 25.59375 -100.335938 10.335938 -91.265625 10.335938 -72.984375 C 10.335938 -54.703125 25.664062 -49.992188 41.132812 -45.84375 C 54.914062 -42.117188 68.0625 -38.882812 68.273438 -26.4375 C 68.484375 -13.992188 57.585938 -9.492188 46.40625 -9.492188 C 32.976562 -9.492188 22.78125 -16.101562 19.757812 -27.84375 L 7.382812 -24.890625 C 10.757812 -8.507812 25.59375 1.335938 46.195312 1.335938 Z M 46.195312 1.335938 "/></g></g></g><g fill="#ffffff" fill-opacity="1"><g transform="translate(800.978966, 644.743817)"><g><path d="M 8.007812 0.839844 C 8.847656 0.894531 9.6875 0.449219 9.96875 -0.222656 C 10.023438 -0.449219 10.078125 -0.558594 10.136719 -0.839844 C 10.191406 -1.007812 10.191406 -1.175781 10.191406 -1.398438 C 10.023438 -2.6875 9.910156 -4.480469 9.855469 -5.542969 C 9.800781 -5.878906 9.96875 -6.046875 10.359375 -6.101562 C 17.636719 -7.28125 22.566406 -11.144531 22.566406 -15.902344 C 22.566406 -20.4375 18.589844 -23.796875 12.878906 -24.132812 C 11.871094 -24.132812 10.640625 -24.132812 9.519531 -23.964844 C 9.238281 -23.964844 9.015625 -24.023438 8.847656 -24.300781 C 8.457031 -24.863281 7.953125 -25.367188 6.71875 -25.199219 C 5.039062 -24.863281 5.152344 -23.183594 5.152344 -20.773438 L 5.152344 -17.191406 C 5.152344 -15.566406 5.824219 -2.742188 6.101562 -0.617188 C 6.214844 0.167969 7 0.785156 8.007812 0.839844 Z M 9.519531 -9.96875 C 9.128906 -12.09375 8.960938 -17.527344 9.128906 -20.101562 C 9.183594 -20.382812 9.351562 -20.605469 9.632812 -20.664062 C 10.472656 -20.832031 11.253906 -20.886719 12.039062 -20.886719 C 15.902344 -20.886719 18.644531 -18.8125 18.644531 -15.902344 C 18.644531 -12.488281 14.503906 -10.359375 10.191406 -9.519531 C 9.800781 -9.464844 9.574219 -9.574219 9.519531 -9.96875 Z M 9.519531 -9.96875 "/></g></g></g><g fill="#ffffff" fill-opacity="1"><g transform="translate(825.895487, 644.743817)"><g><path d="M 4.144531 1.34375 C 4.925781 1.34375 5.542969 0.953125 5.933594 0.222656 C 6.328125 -0.671875 6.832031 -2.6875 7.222656 -4.144531 L 7.390625 -4.871094 C 7.449219 -5.152344 7.671875 -5.375 8.007812 -5.375 L 10.527344 -5.375 C 12.824219 -5.375 15.566406 -5.375 17.582031 -5.488281 C 17.917969 -5.542969 18.140625 -5.375 18.253906 -5.09375 C 18.421875 -4.480469 18.535156 -3.917969 18.589844 -3.304688 C 18.644531 -3.078125 18.589844 -2.800781 18.589844 -2.464844 L 18.589844 -1.511719 C 18.589844 -0.390625 19.542969 0.390625 20.832031 0.390625 C 22.175781 0.390625 23.015625 -0.617188 22.734375 -1.960938 C 20.886719 -14.277344 18.308594 -22.511719 15.175781 -23.964844 C 14.558594 -24.300781 13.832031 -24.46875 13.046875 -24.46875 C 11.703125 -24.46875 10.527344 -23.796875 9.632812 -22.566406 C 7.335938 -19.316406 6.269531 -15.34375 4.367188 -9.183594 C 4.3125 -8.902344 4.144531 -8.734375 3.917969 -8.566406 C 3.246094 -8.175781 3.023438 -7.894531 3.078125 -7.390625 C 3.078125 -7.167969 3.191406 -6.886719 3.359375 -6.4375 C 3.472656 -6.214844 3.527344 -6.101562 3.527344 -6.046875 C 3.527344 -5.933594 2.742188 -2.800781 2.351562 -1.289062 C 2.183594 -0.839844 2.015625 -0.0546875 2.015625 -0.0546875 C 2.128906 0.785156 3.023438 1.34375 4.144531 1.34375 Z M 8.734375 -9.574219 C 9.800781 -12.765625 10.640625 -16.183594 12.488281 -19.484375 C 12.878906 -20.214844 13.605469 -20.269531 14.054688 -19.542969 C 15.285156 -17.414062 16.460938 -13.832031 17.359375 -9.6875 C 17.414062 -9.296875 17.246094 -9.070312 16.855469 -9.015625 C 15.285156 -8.960938 13.773438 -8.960938 12.207031 -8.960938 C 11.199219 -8.960938 10.136719 -8.960938 9.183594 -8.902344 C 8.792969 -8.902344 8.625 -9.183594 8.734375 -9.574219 Z M 8.734375 -9.574219 "/></g></g></g><g fill="#ffffff" fill-opacity="1"><g transform="translate(850.700027, 644.743817)"><g><path d="M 8.0625 1.398438 C 9.183594 1.34375 9.96875 0.617188 10.023438 -0.390625 C 10.078125 -0.839844 10.078125 -1.398438 10.023438 -1.902344 L 9.6875 -7.503906 C 9.6875 -7.839844 9.855469 -8.0625 10.191406 -8.0625 C 10.582031 -8.0625 10.917969 -8.0625 11.253906 -8.121094 L 12.152344 -8.121094 C 12.429688 -8.121094 12.597656 -8.007812 12.824219 -7.839844 C 14.390625 -6.101562 15.734375 -4.703125 17.078125 -3.359375 C 18.199219 -2.351562 19.375 -1.34375 20.605469 -0.222656 C 21.335938 0.449219 22.621094 0.449219 23.351562 -0.167969 C 24.078125 -0.726562 24.132812 -1.625 23.460938 -2.40625 L 22.621094 -3.304688 L 21.726562 -4.199219 C 20.214844 -5.375 18.8125 -6.71875 17.46875 -8.175781 C 17.191406 -8.511719 17.246094 -8.847656 17.636719 -8.960938 L 18.199219 -9.128906 C 20.886719 -10.023438 22.734375 -11.703125 23.574219 -14.054688 C 24.078125 -15.734375 23.855469 -17.414062 22.902344 -18.925781 C 21.109375 -21.390625 18.199219 -22.789062 14.222656 -23.125 C 11.589844 -23.351562 9.070312 -22.734375 6.664062 -22.117188 C 5.824219 -21.894531 5.320312 -21.390625 5.320312 -20.605469 C 5.320312 -19.933594 5.320312 -19.261719 5.261719 -18.644531 C 5.09375 -16.519531 5.152344 -14.335938 5.207031 -12.207031 C 5.320312 -10.75 5.375 -9.296875 5.488281 -7.839844 C 5.597656 -6.382812 5.710938 -4.984375 5.765625 -3.527344 L 5.765625 -2.40625 C 5.765625 -1.625 5.765625 -0.839844 5.933594 -0.113281 C 6.160156 0.785156 7.113281 1.457031 8.0625 1.398438 Z M 10.078125 -11.367188 C 9.96875 -11.367188 9.855469 -11.367188 9.742188 -11.421875 C 9.519531 -11.421875 9.40625 -11.648438 9.40625 -11.984375 C 9.40625 -12.597656 9.351562 -13.269531 9.296875 -13.886719 C 9.183594 -15.453125 9.070312 -17.078125 9.183594 -18.703125 C 9.238281 -19.039062 9.351562 -19.207031 9.632812 -19.316406 C 9.96875 -19.429688 10.359375 -19.484375 11.03125 -19.542969 L 11.589844 -19.597656 C 13.214844 -19.820312 14.78125 -19.933594 16.292969 -19.316406 C 17.804688 -18.757812 19.09375 -18.308594 19.597656 -16.796875 C 20.101562 -15.566406 19.765625 -14.335938 18.589844 -13.382812 C 17.582031 -12.429688 16.40625 -11.984375 15.007812 -11.703125 C 13.328125 -11.480469 11.757812 -11.253906 10.078125 -11.367188 Z M 10.078125 -11.367188 "/></g></g></g><g fill="#ffffff" fill-opacity="1"><g transform="translate(877.912232, 644.743817)"><g><path d="M 4.144531 1.34375 C 4.925781 1.34375 5.542969 0.953125 5.933594 0.222656 C 6.328125 -0.671875 6.832031 -2.6875 7.222656 -4.144531 L 7.390625 -4.871094 C 7.449219 -5.152344 7.671875 -5.375 8.007812 -5.375 L 10.527344 -5.375 C 12.824219 -5.375 15.566406 -5.375 17.582031 -5.488281 C 17.917969 -5.542969 18.140625 -5.375 18.253906 -5.09375 C 18.421875 -4.480469 18.535156 -3.917969 18.589844 -3.304688 C 18.644531 -3.078125 18.589844 -2.800781 18.589844 -2.464844 L 18.589844 -1.511719 C 18.589844 -0.390625 19.542969 0.390625 20.832031 0.390625 C 22.175781 0.390625 23.015625 -0.617188 22.734375 -1.960938 C 20.886719 -14.277344 18.308594 -22.511719 15.175781 -23.964844 C 14.558594 -24.300781 13.832031 -24.46875 13.046875 -24.46875 C 11.703125 -24.46875 10.527344 -23.796875 9.632812 -22.566406 C 7.335938 -19.316406 6.269531 -15.34375 4.367188 -9.183594 C 4.3125 -8.902344 4.144531 -8.734375 3.917969 -8.566406 C 3.246094 -8.175781 3.023438 -7.894531 3.078125 -7.390625 C 3.078125 -7.167969 3.191406 -6.886719 3.359375 -6.4375 C 3.472656 -6.214844 3.527344 -6.101562 3.527344 -6.046875 C 3.527344 -5.933594 2.742188 -2.800781 2.351562 -1.289062 C 2.183594 -0.839844 2.015625 -0.0546875 2.015625 -0.0546875 C 2.128906 0.785156 3.023438 1.34375 4.144531 1.34375 Z M 8.734375 -9.574219 C 9.800781 -12.765625 10.640625 -16.183594 12.488281 -19.484375 C 12.878906 -20.214844 13.605469 -20.269531 14.054688 -19.542969 C 15.285156 -17.414062 16.460938 -13.832031 17.359375 -9.6875 C 17.414062 -9.296875 17.246094 -9.070312 16.855469 -9.015625 C 15.285156 -8.960938 13.773438 -8.960938 12.207031 -8.960938 C 11.199219 -8.960938 10.136719 -8.960938 9.183594 -8.902344 C 8.792969 -8.902344 8.625 -9.183594 8.734375 -9.574219 Z M 8.734375 -9.574219 "/></g></g></g><g fill="#ffffff" fill-opacity="1"><g transform="translate(902.716772, 644.743817)"><g/></g></g><g fill="#ffffff" fill-opacity="1"><g transform="translate(919.514431, 644.743817)"><g><path d="M 21.78125 -22.0625 C 21.335938 -22.847656 20.4375 -22.902344 19.652344 -22.902344 C 18.199219 -22.847656 16.796875 -22.734375 15.34375 -22.566406 C 14.78125 -22.511719 14.222656 -22.453125 13.71875 -22.398438 C 13.382812 -22.398438 13.160156 -22.511719 13.046875 -22.847656 C 12.65625 -23.6875 12.039062 -24.132812 11.253906 -24.078125 C 9.910156 -23.964844 9.632812 -23.125 9.519531 -22.398438 C 9.40625 -22.117188 9.238281 -21.949219 8.960938 -21.894531 L 6.4375 -21.445312 C 5.429688 -21.277344 4.367188 -21.109375 3.359375 -21 C 1.960938 -20.832031 1.175781 -20.046875 1.289062 -18.925781 C 1.511719 -17.917969 2.6875 -17.300781 3.976562 -17.46875 C 4.367188 -17.527344 4.757812 -17.582031 5.152344 -17.695312 C 5.320312 -17.75 5.542969 -17.804688 5.65625 -17.804688 C 6.496094 -17.972656 7.28125 -18.085938 8.175781 -18.199219 L 8.734375 -18.253906 C 9.070312 -18.308594 9.296875 -18.140625 9.351562 -17.75 C 9.351562 -17.191406 9.351562 -16.628906 9.351562 -16.015625 C 9.296875 -13.214844 9.296875 -10.414062 9.351562 -7.671875 C 9.351562 -5.765625 9.40625 -3.863281 9.519531 -1.902344 C 9.519531 -1.0625 10.136719 -0.449219 11.03125 -0.28125 C 11.925781 -0.113281 12.878906 -0.503906 13.214844 -1.230469 C 13.4375 -1.625 13.496094 -1.902344 13.496094 -2.6875 C 13.496094 -3.472656 13.4375 -4.3125 13.382812 -5.09375 C 13.328125 -6.328125 13.269531 -7.558594 13.269531 -8.792969 C 13.214844 -10.136719 13.269531 -11.480469 13.269531 -12.824219 L 13.269531 -16.238281 C 13.269531 -16.910156 13.214844 -17.636719 13.269531 -18.308594 C 13.269531 -18.644531 13.4375 -18.8125 13.773438 -18.871094 C 14.445312 -18.925781 15.0625 -18.980469 15.621094 -19.09375 C 17.132812 -19.207031 18.703125 -19.316406 20.214844 -19.484375 C 21.839844 -19.710938 22.621094 -20.941406 21.78125 -22.0625 Z M 21.78125 -22.0625 "/></g></g></g><g fill="#ffffff" fill-opacity="1"><g transform="translate(943.031145, 644.743817)"><g><path d="M 12.207031 -0.167969 C 14.335938 -0.167969 16.183594 -1.175781 17.527344 -2.910156 C 18.871094 -4.648438 19.765625 -6.664062 20.269531 -9.183594 C 20.886719 -12.375 21.167969 -16.796875 21.335938 -19.933594 C 21.390625 -20.214844 21.390625 -20.4375 21.390625 -20.886719 C 21.390625 -21.390625 21.390625 -21.613281 21.277344 -21.894531 C 21 -22.679688 20.046875 -23.238281 19.148438 -23.183594 C 18.253906 -23.125 17.46875 -22.398438 17.46875 -21.503906 C 17.527344 -20.382812 17.414062 -19.261719 17.300781 -18.199219 C 17.191406 -17.246094 17.078125 -16.125 17.023438 -15.007812 C 16.855469 -12.992188 16.6875 -10.863281 16.292969 -9.296875 C 15.847656 -7.449219 15.230469 -5.765625 14 -4.3125 C 13.496094 -3.75 12.878906 -3.472656 12.207031 -3.472656 C 11.925781 -3.472656 11.703125 -3.527344 11.3125 -3.640625 C 10.191406 -3.917969 9.351562 -4.648438 8.734375 -5.933594 C 7.953125 -7.390625 7.617188 -9.015625 7.28125 -10.695312 C 6.945312 -12.878906 6.832031 -14.558594 6.71875 -16.070312 L 6.550781 -18.367188 C 6.550781 -20.101562 6.550781 -20.382812 6.160156 -20.886719 C 5.824219 -21.277344 5.261719 -21.613281 4.648438 -21.613281 C 4.421875 -21.613281 4.199219 -21.558594 3.976562 -21.503906 C 3.527344 -21.335938 3.246094 -21.109375 2.96875 -20.664062 C 2.742188 -20.328125 2.632812 -20.046875 2.574219 -19.652344 C 2.519531 -18.871094 2.519531 -18.140625 2.574219 -17.46875 L 3.191406 -10.640625 C 3.527344 -7.953125 4.144531 -5.992188 5.207031 -4.199219 C 6.101562 -2.574219 7.222656 -1.566406 8.679688 -0.953125 C 9.800781 -0.449219 11.03125 -0.167969 12.207031 -0.167969 Z M 12.207031 -0.167969 "/></g></g></g><g fill="#ffffff" fill-opacity="1"><g transform="translate(966.939808, 644.743817)"><g/></g></g><g fill="#ffffff" fill-opacity="1"><g transform="translate(983.737467, 644.743817)"><g><path d="M 11.3125 0.726562 C 14.78125 0.726562 18.367188 -2.070312 18.367188 -5.992188 C 18.367188 -9.296875 14.894531 -10.917969 9.910156 -13.214844 C 8.679688 -13.941406 8.007812 -14.839844 8.007812 -15.847656 C 8.007812 -17.582031 10.078125 -18.757812 11.816406 -18.757812 C 13.046875 -18.757812 14.671875 -18.085938 15.398438 -16.742188 C 15.734375 -16.183594 16.460938 -15.789062 17.191406 -15.789062 C 18.535156 -15.789062 19.652344 -17.023438 19.039062 -18.199219 C 18.03125 -20.101562 16.351562 -21.390625 14.109375 -22.0625 C 13.550781 -22.230469 12.933594 -22.34375 12.207031 -22.34375 C 7.953125 -22.34375 3.808594 -19.542969 3.808594 -15.679688 C 3.808594 -12.992188 5.765625 -10.695312 8.734375 -9.351562 C 11.480469 -8.007812 14 -7 14.054688 -5.320312 C 14.109375 -3.863281 12.597656 -2.910156 10.808594 -2.910156 C 9.464844 -2.910156 8.625 -3.246094 7.671875 -4.3125 C 7.28125 -4.703125 6.664062 -4.925781 6.101562 -4.925781 C 4.925781 -4.925781 4.03125 -4.085938 4.03125 -3.023438 C 4.03125 -1.175781 8.34375 0.726562 11.3125 0.726562 Z M 11.3125 0.726562 "/></g></g></g><g fill="#ffffff" fill-opacity="1"><g transform="translate(1006.134342, 644.743817)"><g><path d="M 11.589844 1.007812 C 13.886719 0.894531 15.902344 0.113281 17.863281 -0.558594 C 18.925781 -0.894531 19.429688 -1.679688 19.207031 -2.464844 C 19.148438 -2.742188 19.09375 -2.910156 18.925781 -3.078125 C 18.535156 -3.695312 17.582031 -3.917969 16.519531 -3.640625 L 14.949219 -3.191406 C 14.222656 -2.96875 13.4375 -2.742188 12.65625 -2.574219 C 10.863281 -2.128906 10.414062 -2.351562 9.96875 -4.03125 C 9.351562 -6.214844 9.296875 -8.457031 9.238281 -10.023438 C 9.183594 -10.359375 9.351562 -10.582031 9.742188 -10.640625 C 12.710938 -11.085938 13.941406 -11.03125 15.230469 -11.144531 L 17.863281 -11.3125 C 18.980469 -11.367188 19.765625 -11.984375 19.765625 -12.878906 C 19.765625 -13.832031 18.980469 -14.445312 17.804688 -14.445312 C 16.628906 -14.558594 15.398438 -14.445312 9.96875 -13.941406 C 9.574219 -13.886719 9.351562 -14.167969 9.351562 -14.503906 L 9.351562 -20.941406 C 9.351562 -21.277344 9.574219 -21.503906 9.910156 -21.558594 C 13.832031 -21.78125 14.671875 -21.839844 15.453125 -21.839844 C 16.292969 -21.894531 17.191406 -21.894531 18.085938 -21.949219 C 19.039062 -22.0625 19.765625 -22.789062 19.710938 -23.574219 C 19.710938 -24.300781 18.980469 -24.917969 18.085938 -25.085938 C 17.46875 -25.199219 16.742188 -25.253906 16.015625 -25.253906 C 14.839844 -25.140625 13.71875 -25.085938 12.597656 -24.972656 C 11.480469 -24.863281 10.359375 -24.75 9.238281 -24.695312 C 8.847656 -24.636719 8.625 -24.582031 8.34375 -24.636719 C 7.503906 -24.917969 6.664062 -24.804688 5.824219 -24.300781 C 4.367188 -23.460938 4.144531 -22.734375 5.09375 -21.78125 C 5.261719 -21.558594 5.375 -21.390625 5.375 -21.109375 C 5.429688 -19.820312 5.375 -18.871094 5.320312 -17.527344 C 5.320312 -17.023438 5.261719 -16.519531 5.261719 -16.015625 C 5.207031 -13.101562 5.039062 -10.246094 5.207031 -8.511719 C 5.375 -6.269531 5.597656 -4.03125 6.550781 -1.847656 C 7.222656 -0.222656 9.632812 1.121094 11.589844 1.007812 Z M 11.589844 1.007812 "/></g></g></g><g fill="#ffffff" fill-opacity="1"><g transform="translate(1029.427095, 644.743817)"><g><path d="M 21.78125 -22.0625 C 21.335938 -22.847656 20.4375 -22.902344 19.652344 -22.902344 C 18.199219 -22.847656 16.796875 -22.734375 15.34375 -22.566406 C 14.78125 -22.511719 14.222656 -22.453125 13.71875 -22.398438 C 13.382812 -22.398438 13.160156 -22.511719 13.046875 -22.847656 C 12.65625 -23.6875 12.039062 -24.132812 11.253906 -24.078125 C 9.910156 -23.964844 9.632812 -23.125 9.519531 -22.398438 C 9.40625 -22.117188 9.238281 -21.949219 8.960938 -21.894531 L 6.4375 -21.445312 C 5.429688 -21.277344 4.367188 -21.109375 3.359375 -21 C 1.960938 -20.832031 1.175781 -20.046875 1.289062 -18.925781 C 1.511719 -17.917969 2.6875 -17.300781 3.976562 -17.46875 C 4.367188 -17.527344 4.757812 -17.582031 5.152344 -17.695312 C 5.320312 -17.75 5.542969 -17.804688 5.65625 -17.804688 C 6.496094 -17.972656 7.28125 -18.085938 8.175781 -18.199219 L 8.734375 -18.253906 C 9.070312 -18.308594 9.296875 -18.140625 9.351562 -17.75 C 9.351562 -17.191406 9.351562 -16.628906 9.351562 -16.015625 C 9.296875 -13.214844 9.296875 -10.414062 9.351562 -7.671875 C 9.351562 -5.765625 9.40625 -3.863281 9.519531 -1.902344 C 9.519531 -1.0625 10.136719 -0.449219 11.03125 -0.28125 C 11.925781 -0.113281 12.878906 -0.503906 13.214844 -1.230469 C 13.4375 -1.625 13.496094 -1.902344 13.496094 -2.6875 C 13.496094 -3.472656 13.4375 -4.3125 13.382812 -5.09375 C 13.328125 -6.328125 13.269531 -7.558594 13.269531 -8.792969 C 13.214844 -10.136719 13.269531 -11.480469 13.269531 -12.824219 L 13.269531 -16.238281 C 13.269531 -16.910156 13.214844 -17.636719 13.269531 -18.308594 C 13.269531 -18.644531 13.4375 -18.8125 13.773438 -18.871094 C 14.445312 -18.925781 15.0625 -18.980469 15.621094 -19.09375 C 17.132812 -19.207031 18.703125 -19.316406 20.214844 -19.484375 C 21.839844 -19.710938 22.621094 -20.941406 21.78125 -22.0625 Z M 21.78125 -22.0625 "/></g></g></g><g fill="#ffffff" fill-opacity="1"><g transform="translate(1052.943809, 644.743817)"><g><path d="M 12.207031 -0.167969 C 14.335938 -0.167969 16.183594 -1.175781 17.527344 -2.910156 C 18.871094 -4.648438 19.765625 -6.664062 20.269531 -9.183594 C 20.886719 -12.375 21.167969 -16.796875 21.335938 -19.933594 C 21.390625 -20.214844 21.390625 -20.4375 21.390625 -20.886719 C 21.390625 -21.390625 21.390625 -21.613281 21.277344 -21.894531 C 21 -22.679688 20.046875 -23.238281 19.148438 -23.183594 C 18.253906 -23.125 17.46875 -22.398438 17.46875 -21.503906 C 17.527344 -20.382812 17.414062 -19.261719 17.300781 -18.199219 C 17.191406 -17.246094 17.078125 -16.125 17.023438 -15.007812 C 16.855469 -12.992188 16.6875 -10.863281 16.292969 -9.296875 C 15.847656 -7.449219 15.230469 -5.765625 14 -4.3125 C 13.496094 -3.75 12.878906 -3.472656 12.207031 -3.472656 C 11.925781 -3.472656 11.703125 -3.527344 11.3125 -3.640625 C 10.191406 -3.917969 9.351562 -4.648438 8.734375 -5.933594 C 7.953125 -7.390625 7.617188 -9.015625 7.28125 -10.695312 C 6.945312 -12.878906 6.832031 -14.558594 6.71875 -16.070312 L 6.550781 -18.367188 C 6.550781 -20.101562 6.550781 -20.382812 6.160156 -20.886719 C 5.824219 -21.277344 5.261719 -21.613281 4.648438 -21.613281 C 4.421875 -21.613281 4.199219 -21.558594 3.976562 -21.503906 C 3.527344 -21.335938 3.246094 -21.109375 2.96875 -20.664062 C 2.742188 -20.328125 2.632812 -20.046875 2.574219 -19.652344 C 2.519531 -18.871094 2.519531 -18.140625 2.574219 -17.46875 L 3.191406 -10.640625 C 3.527344 -7.953125 4.144531 -5.992188 5.207031 -4.199219 C 6.101562 -2.574219 7.222656 -1.566406 8.679688 -0.953125 C 9.800781 -0.449219 11.03125 -0.167969 12.207031 -0.167969 Z M 12.207031 -0.167969 "/></g></g></g><g fill="#ffffff" fill-opacity="1"><g transform="translate(1076.85246, 644.743817)"><g><path d="M 8.0625 0.894531 C 9.070312 0.894531 10.078125 0 10.078125 -1.121094 L 9.6875 -4.757812 C 9.574219 -5.375 9.574219 -5.992188 9.464844 -6.664062 C 9.464844 -7 9.632812 -7.222656 9.96875 -7.222656 C 15.679688 -7.617188 21.390625 -10.917969 21.390625 -16.070312 C 21.390625 -21.167969 15.957031 -24.078125 9.128906 -24.078125 C 8.566406 -24.078125 7.617188 -24.414062 6.945312 -24.414062 C 5.765625 -24.414062 5.039062 -23.40625 5.039062 -22.117188 C 5.039062 -12.710938 5.039062 -10.191406 5.992188 -1.289062 C 5.992188 -1.007812 6.101562 -0.671875 6.269531 -0.28125 C 6.605469 0.449219 6.886719 0.894531 8.0625 0.894531 Z M 9.183594 -11.3125 C 9.015625 -13.101562 9.015625 -14.894531 9.015625 -16.742188 C 9.015625 -17.972656 9.015625 -19.09375 8.960938 -20.328125 C 8.960938 -20.664062 9.183594 -20.886719 9.519531 -20.886719 C 13.605469 -20.71875 17.414062 -19.375 17.414062 -15.902344 C 17.414062 -15.398438 17.300781 -14.894531 17.132812 -14.390625 C 16.40625 -12.542969 12.207031 -10.863281 9.742188 -10.808594 C 9.40625 -10.808594 9.238281 -10.976562 9.183594 -11.3125 Z M 9.183594 -11.3125 "/></g></g></g><g fill="#ffffff" fill-opacity="1"><g transform="translate(1102.209403, 644.743817)"><g/></g></g></svg>