<svg xmlns="http://www.w3.org/2000/svg" xmlns:xlink="http://www.w3.org/1999/xlink" width="500" zoomAndPan="magnify" viewBox="0 0 375 374.999991" height="500" preserveAspectRatio="xMidYMid meet" version="1.0"><defs><clipPath id="937b6f41e7"><path d="M 137.917969 109.648438 L 230.917969 109.648438 L 230.917969 239.398438 L 137.917969 239.398438 Z M 137.917969 109.648438 " clip-rule="nonzero"/></clipPath></defs><path fill="#1bd64f" d="M 153.796875 184.8125 L 140.1875 177.992188 L 140.1875 200.734375 C 140.1875 208.460938 142.589844 215.621094 146.683594 221.511719 L 153.796875 214.378906 Z M 153.796875 184.8125 " fill-opacity="1" fill-rule="nonzero"/><path fill="#540c94" d="M 199.160156 184.8125 L 212.769531 177.992188 L 212.769531 139.328125 L 183.28125 121.132812 L 176.476562 121.132812 C 156.433594 121.132812 140.1875 137.425781 140.1875 157.523438 L 140.1875 177.992188 L 153.796875 184.8125 L 153.796875 214.378906 L 146.683594 221.511719 C 153.242188 230.949219 164.140625 237.125 176.476562 237.125 C 188.816406 237.125 199.714844 230.949219 206.273438 221.511719 L 199.160156 214.378906 Z M 199.160156 184.8125 " fill-opacity="1" fill-rule="nonzero"/><path fill="#1bd64f" d="M 212.769531 177.992188 L 199.160156 184.8125 L 199.160156 214.378906 L 206.273438 221.511719 C 210.367188 215.621094 212.769531 208.460938 212.769531 200.734375 Z M 212.769531 177.992188 " fill-opacity="1" fill-rule="nonzero"/><path fill="#1bd64f" d="M 153.796875 184.8125 L 153.796875 214.378906 L 146.683594 221.511719 C 142.589844 215.621094 140.1875 208.457031 140.1875 200.734375 L 140.1875 177.992188 Z M 153.796875 184.8125 " fill-opacity="1" fill-rule="nonzero"/><path fill="#540c94" d="M 202.640625 133.078125 L 202.640625 175.988281 L 176.476562 188.886719 L 176.476562 121.132812 L 183.28125 121.132812 Z M 202.640625 133.078125 " fill-opacity="1" fill-rule="nonzero"/><path fill="#1bd64f" d="M 212.769531 177.992188 L 212.769531 200.734375 C 212.769531 208.457031 210.367188 215.621094 206.273438 221.511719 L 199.160156 214.378906 L 199.160156 184.8125 Z M 212.769531 177.992188 " fill-opacity="1" fill-rule="nonzero"/><path fill="#1bd64f" d="M 171.941406 159.796875 L 171.941406 112.035156 L 153.796875 123.976562 L 153.796875 173.441406 L 176.476562 184.8125 L 176.476562 159.796875 Z M 171.941406 159.796875 " fill-opacity="1" fill-rule="nonzero"/><path fill="#1bd64f" d="M 181.015625 159.796875 L 181.015625 112.035156 L 199.160156 123.976562 L 199.160156 173.441406 L 176.476562 184.8125 L 176.476562 159.796875 Z M 181.015625 159.796875 " fill-opacity="1" fill-rule="nonzero"/><path fill="#737373" d="M 176.476562 166.621094 C 172.71875 166.621094 169.671875 163.566406 169.671875 159.796875 L 169.671875 137.054688 C 169.671875 133.285156 172.71875 130.230469 176.476562 130.230469 C 180.234375 130.230469 183.28125 133.285156 183.28125 137.054688 L 183.28125 159.796875 C 183.28125 163.566406 180.234375 166.621094 176.476562 166.621094 Z M 176.476562 166.621094 " fill-opacity="1" fill-rule="nonzero"/><path fill="#737373" d="M 212.769531 139.328125 L 221.839844 145.867188 L 221.839844 155.246094 L 228.644531 166.621094 L 228.644531 189.363281 C 222.679688 192.355469 217.488281 196.695312 213.488281 202.046875 L 212.769531 203.007812 Z M 212.769531 139.328125 " fill-opacity="1" fill-rule="nonzero"/><g clip-path="url(#937b6f41e7)"><path fill="#000000" d="M 230.589844 165.449219 L 224.109375 154.617188 L 224.109375 145.867188 C 224.109375 145.132812 223.757812 144.445312 223.164062 144.019531 L 201.425781 129.660156 L 201.425781 123.976562 C 201.425781 123.210938 201.042969 122.496094 200.402344 122.074219 L 182.257812 110.132812 C 181.5625 109.675781 180.667969 109.636719 179.9375 110.035156 C 179.203125 110.429688 178.746094 111.199219 178.746094 112.035156 L 178.746094 118.859375 L 176.476562 118.859375 C 175.722656 118.859375 174.964844 118.882812 174.210938 118.925781 L 174.210938 112.035156 C 174.210938 111.199219 173.753906 110.429688 173.019531 110.035156 C 172.285156 109.636719 171.394531 109.675781 170.695312 110.132812 L 152.550781 122.074219 C 151.914062 122.496094 151.527344 123.210938 151.527344 123.976562 L 151.527344 128.046875 C 142.875 135.417969 137.917969 146.125 137.917969 157.523438 L 137.917969 200.734375 C 137.917969 222.054688 155.214844 239.398438 176.476562 239.398438 C 196.660156 239.398438 213.269531 223.769531 214.902344 203.945312 L 215.300781 203.414062 C 219.070312 198.371094 224.039062 194.214844 229.660156 191.398438 C 230.429688 191.011719 230.914062 190.222656 230.914062 189.363281 L 230.914062 166.621094 C 230.914062 166.207031 230.800781 165.804688 230.589844 165.449219 Z M 205.871094 217.894531 L 201.425781 213.4375 L 201.425781 186.21875 L 210.5 181.671875 L 210.5 200.734375 C 210.5 206.988281 208.8125 212.851562 205.871094 217.894531 Z M 196.890625 125.203125 L 196.890625 172.035156 L 178.746094 181.132812 L 178.746094 168.605469 C 182.65625 167.59375 185.550781 164.027344 185.550781 159.796875 L 185.550781 137.054688 C 185.550781 134.753906 184.691406 132.648438 183.28125 131.046875 L 183.28125 116.25 Z M 171.941406 150.699219 L 181.015625 150.699219 L 181.015625 155.246094 L 171.941406 155.246094 Z M 171.941406 141.601562 L 181.015625 141.601562 L 181.015625 146.152344 L 171.941406 146.152344 Z M 181.015625 137.054688 L 171.941406 137.054688 C 171.941406 134.546875 173.976562 132.503906 176.476562 132.503906 C 178.980469 132.503906 181.015625 134.546875 181.015625 137.054688 Z M 181.015625 159.796875 C 181.015625 162.304688 178.980469 164.34375 176.476562 164.34375 C 173.976562 164.34375 171.941406 162.304688 171.941406 159.796875 Z M 176.476562 123.40625 L 178.746094 123.40625 L 178.746094 128.242188 C 178.019531 128.054688 177.261719 127.957031 176.476562 127.957031 C 175.695312 127.957031 174.933594 128.054688 174.210938 128.242188 L 174.210938 123.484375 C 174.964844 123.433594 175.722656 123.40625 176.476562 123.40625 Z M 156.0625 125.203125 L 169.671875 116.25 L 169.671875 131.046875 C 168.261719 132.648438 167.40625 134.753906 167.40625 137.054688 L 167.40625 159.796875 C 167.40625 164.027344 170.300781 167.59375 174.210938 168.605469 L 174.210938 181.132812 L 156.0625 172.035156 Z M 142.457031 181.671875 L 151.527344 186.21875 L 151.527344 213.4375 L 147.082031 217.894531 C 144.144531 212.851562 142.457031 206.988281 142.457031 200.734375 Z M 176.476562 234.847656 C 165.605469 234.847656 155.910156 229.710938 149.675781 221.726562 L 155.398438 215.988281 C 155.824219 215.5625 156.0625 214.984375 156.0625 214.378906 L 156.0625 184.8125 C 156.0625 183.953125 155.578125 183.164062 154.8125 182.78125 L 142.457031 176.585938 L 142.457031 157.523438 C 142.457031 148.835938 145.71875 140.601562 151.527344 134.328125 L 151.527344 173.441406 C 151.527344 174.304688 152.011719 175.089844 152.78125 175.476562 L 175.464844 186.847656 C 175.789062 187.011719 176.136719 187.089844 176.476562 187.089844 C 176.828125 187.089844 177.175781 187 177.488281 186.84375 L 177.492188 186.847656 L 200.171875 175.476562 C 200.941406 175.089844 201.425781 174.304688 201.425781 173.441406 L 201.425781 135 L 210.5 140.597656 L 210.5 176.585938 L 198.144531 182.78125 C 197.375 183.164062 196.890625 183.953125 196.890625 184.8125 L 196.890625 214.378906 C 196.890625 214.984375 197.128906 215.5625 197.554688 215.988281 L 203.277344 221.726562 C 197.046875 229.710938 187.347656 234.847656 176.476562 234.847656 Z M 226.378906 187.984375 C 222.171875 190.261719 218.328125 193.21875 215.035156 196.695312 L 215.035156 143.761719 L 219.574219 147.03125 L 219.574219 155.246094 C 219.574219 155.660156 219.683594 156.066406 219.894531 156.417969 L 226.378906 167.25 Z M 226.378906 187.984375 " fill-opacity="1" fill-rule="nonzero"/></g><path fill="#000000" d="M 176.476562 205.28125 C 175.226562 205.28125 174.210938 206.300781 174.210938 207.558594 L 174.210938 209.832031 C 174.210938 211.085938 175.226562 212.105469 176.476562 212.105469 C 177.730469 212.105469 178.746094 211.085938 178.746094 209.832031 L 178.746094 207.558594 C 178.746094 206.300781 177.730469 205.28125 176.476562 205.28125 Z M 176.476562 205.28125 " fill-opacity="1" fill-rule="nonzero"/><path fill="#000000" d="M 185.550781 205.28125 C 184.296875 205.28125 183.28125 206.300781 183.28125 207.558594 L 183.28125 209.832031 C 183.28125 211.085938 184.296875 212.105469 185.550781 212.105469 C 186.804688 212.105469 187.820312 211.085938 187.820312 209.832031 L 187.820312 207.558594 C 187.820312 206.300781 186.804688 205.28125 185.550781 205.28125 Z M 185.550781 205.28125 " fill-opacity="1" fill-rule="nonzero"/><path fill="#000000" d="M 167.40625 205.28125 C 166.152344 205.28125 165.136719 206.300781 165.136719 207.558594 L 165.136719 209.832031 C 165.136719 211.085938 166.152344 212.105469 167.40625 212.105469 C 168.65625 212.105469 169.671875 211.085938 169.671875 209.832031 L 169.671875 207.558594 C 169.671875 206.300781 168.65625 205.28125 167.40625 205.28125 Z M 167.40625 205.28125 " fill-opacity="1" fill-rule="nonzero"/><path fill="#000000" d="M 167.40625 216.65625 C 166.152344 216.65625 165.136719 217.671875 165.136719 218.929688 L 165.136719 221.203125 C 165.136719 222.460938 166.152344 223.476562 167.40625 223.476562 C 168.65625 223.476562 169.671875 222.460938 169.671875 221.203125 L 169.671875 218.929688 C 169.671875 217.671875 168.65625 216.65625 167.40625 216.65625 Z M 167.40625 216.65625 " fill-opacity="1" fill-rule="nonzero"/><path fill="#000000" d="M 176.476562 216.65625 C 175.226562 216.65625 174.210938 217.671875 174.210938 218.929688 L 174.210938 221.203125 C 174.210938 222.460938 175.226562 223.476562 176.476562 223.476562 C 177.730469 223.476562 178.746094 222.460938 178.746094 221.203125 L 178.746094 218.929688 C 178.746094 217.671875 177.730469 216.65625 176.476562 216.65625 Z M 176.476562 216.65625 " fill-opacity="1" fill-rule="nonzero"/><path fill="#000000" d="M 185.550781 216.65625 C 184.296875 216.65625 183.28125 217.671875 183.28125 218.929688 L 183.28125 221.203125 C 183.28125 222.460938 184.296875 223.476562 185.550781 223.476562 C 186.804688 223.476562 187.820312 222.460938 187.820312 221.203125 L 187.820312 218.929688 C 187.820312 217.671875 186.804688 216.65625 185.550781 216.65625 Z M 185.550781 216.65625 " fill-opacity="1" fill-rule="nonzero"/><path fill="#000000" d="M 141.960938 127.792969 C 142.125 127.832031 142.292969 127.847656 142.457031 127.847656 C 143.496094 127.847656 144.433594 127.128906 144.667969 126.070312 C 145.648438 121.683594 148.414062 117.828125 152.25 115.5 L 153.128906 114.964844 C 154.203125 114.316406 154.542969 112.917969 153.894531 111.84375 C 153.246094 110.769531 151.851562 110.425781 150.78125 111.074219 L 149.902344 111.609375 C 145.011719 114.578125 141.492188 119.484375 140.242188 125.078125 C 139.96875 126.300781 140.738281 127.519531 141.960938 127.792969 Z M 141.960938 127.792969 " fill-opacity="1" fill-rule="nonzero"/></svg>